<?xml version="1.0" standalone="no"?>
<!DOCTYPE svg PUBLIC "-//W3C//DTD SVG 1.1//EN" "http://www.w3.org/Graphics/SVG/1.1/DTD/svg11.dtd" >
<svg xmlns="http://www.w3.org/2000/svg">
<metadata>Generated by IcoMoon</metadata>
<defs>
<font id="icomoon" horiz-adv-x="1024">
<font-face units-per-em="1024" ascent="960" descent="-64" />
<missing-glyph horiz-adv-x="1024" />
<glyph unicode="&#x20;" horiz-adv-x="512" d="" />
<glyph unicode="&#xe900;" glyph-name="mail" d="M1024 738.928v3.982c0 14.804-6.719 32.222-18.786 44.289l-1.369 1.369c0 0-1.369 0-1.369 1.369-2.737 2.737-5.35 3.982-8.086 6.719-1.369 0-1.369 1.369-2.737 1.369-2.737 1.369-6.719 2.737-9.456 3.982-1.369 0-1.369 1.369-2.737 1.369-3.982 1.369-8.086 2.737-12.067 2.737-1.369 0-1.369 0-2.737 0-3.982 0-9.454 1.369-14.804 1.369h-877.199c-5.35 0-10.699 0-16.173-1.369-1.369 0-2.737 0-3.982-1.369-3.982-1.369-8.087-1.369-10.699-2.737-1.369 0-1.369-1.369-2.737-1.369-2.737-1.369-6.719-2.737-9.456-3.982l-1.369-1.369c-2.737-1.369-5.35-3.982-8.087-5.35-1.369-1.369-2.737-2.737-3.982-3.982-9.451-10.701-14.801-22.892-16.17-36.328 0-1.369 0-1.369 0-2.737v-597.904c0-1.369 0-1.369 0-2.737 2.737-18.786 12.067-34.959 25.503-44.289 12.067-8.086 26.872-13.436 44.289-13.436h882.797c0 0 0 0 1.369 0v0c3.982 0 9.454 0 13.436 1.369 1.369 0 1.369 0 2.737 0 3.982 1.369 8.087 1.369 10.699 2.737h1.369c29.609 10.699 41.676 36.328 41.676 60.462v581.854c0 1.369 0 1.369 0 2.737 0.125-0.124 0.125-0.124 0.125 1.245zM938.035 757.713l-423.236-412.411-96.79 94.053-331.918 318.484 851.944-0.125zM49.887 165.159v558.963l313.010-300.943-313.010-258.020zM501.363 137.043h-407.187l305.048 249.935 98.033-95.421c3.982-3.982 8.087-5.35 12.067-6.719h1.369c1.369 0 1.369 0 2.737 0v0c1.369 0 2.737 0 2.737 0h1.369c3.982 1.369 9.454 2.737 12.067 6.719l92.684 90.071 306.291-244.586h-427.216zM974.237 163.915l-314.377 253.916 314.377 306.293v-560.209z" />
<glyph unicode="&#xe901;" glyph-name="password" d="M776.339 590.748h-16.679v121.617c0.005 136.546-111.094 247.635-247.656 247.635-136.556 0-247.656-111.089-247.656-247.635v-121.617h-16.689c-48.65 0-88.234-39.584-88.234-88.234v-478.274c0-48.65 39.584-88.234 88.234-88.234h528.679c48.65 0 88.234 39.584 88.234 88.234v478.274c0 48.65-39.579 88.234-88.234 88.234zM339.979 712.365c0 94.844 77.172 172.006 172.026 172.006s172.026-77.162 172.026-172.006v-121.617h-344.053v121.617zM788.944 24.234c0-6.832-5.773-12.605-12.605-12.605h-528.679c-6.832 0-12.605 5.773-12.605 12.605v478.279c0 6.832 5.773 12.605 12.605 12.605h528.679c6.832 0 12.605-5.773 12.605-12.605v-478.279zM511.995 373.576c-20.884 0-37.815-16.926-37.815-37.815v-144.78c0-20.889 16.931-37.815 37.815-37.815s37.815 16.926 37.815 37.815v144.78c0 20.889-16.931 37.815-37.815 37.815z" />
<glyph unicode="&#xe902;" glyph-name="dashboard" d="M1013.11 543.872l-485.392 355.394c-9.36 6.852-22.076 6.852-31.432 0l-485.396-355.394c-11.856-8.682-14.432-25.33-5.75-37.186s25.332-14.428 37.186-5.75l469.674 343.888 469.674-343.886c4.736-3.47 10.24-5.14 15.696-5.14 8.192 0 16.276 3.77 21.488 10.89 8.684 11.854 6.108 28.502-5.748 37.184zM884.492 494.914c-14.692 0-26.606-11.912-26.606-26.606v-423.498h-212.844v231.172c0 73.36-59.684 133.040-133.040 133.040s-133.040-59.684-133.040-133.040v-231.174h-212.846v423.498c0 14.694-11.914 26.606-26.606 26.606s-26.606-11.912-26.606-26.606v-450.106c0-14.694 11.914-26.606 26.606-26.606h266.058c13.992 0 25.442 10.81 26.502 24.534 0.064 0.622 0.104 1.302 0.104 2.072v257.78c0 44.018 35.81 79.828 79.828 79.828s79.828-35.812 79.828-79.828v-257.78c0-0.766 0.040-1.434 0.104-2.048 1.048-13.734 12.502-24.558 26.502-24.558h266.058c14.694 0 26.606 11.912 26.606 26.606v450.106c-0.002 14.696-11.914 26.608-26.608 26.608z" />
<glyph unicode="&#xe903;" glyph-name="hierarchical" d="M1007.37 123.174h-105.136v117.514c0 9.186-7.444 16.63-16.63 16.63h-138.578v94.234h105.136c9.186 0 16.63 7.444 16.63 16.63v146.338c0 9.186-7.444 16.63-16.63 16.63h-105.136v98.668c0 9.186-7.444 16.63-16.63 16.63h-201.766v95.342h49.99c9.186 0 16.63 7.444 16.63 16.63s-7.444 16.63-16.63 16.63h-249.542v144.116h365.846v-144.122h-47.772c-9.186 0-16.63-7.444-16.63-16.63s7.444-16.63 16.63-16.63h64.402c9.186 0 16.63 7.444 16.63 16.63v177.38c0 9.186-7.444 16.63-16.63 16.63h-399.106c-9.186 0-16.63-7.444-16.63-16.63v-177.38c0-9.186 7.444-16.63 16.63-16.63h182.922v-95.342h-212.076c-9.186 0-16.63-7.444-16.63-16.63v-98.668h-105.136c-9.186 0-16.63-7.444-16.63-16.63v-146.338c0-9.186 7.444-16.63 16.63-16.63h105.136v-94.234h-128.27c-9.186 0-16.63-7.444-16.63-16.63v-117.514h-105.134c-9.186 0-16.63-7.444-16.63-16.63v-146.338c0-9.186 7.444-16.63 16.63-16.63h243.53c9.186 0 16.63 7.444 16.63 16.63v146.338c0 9.186-7.444 16.63-16.63 16.63h-105.136v100.884h335.194v-100.884h-105.138c-9.186 0-16.63-7.444-16.63-16.63v-146.338c0-9.186 7.444-16.63 16.63-16.63h126.92c9.186 0 16.63 7.444 16.63 16.63s-7.444 16.63-16.63 16.63h-110.29v113.080h210.272v-113.080h-31.452c-9.186 0-16.63-7.444-16.63-16.63s7.444-16.63 16.63-16.63h48.080c9.186 0 16.63 7.444 16.63 16.63v146.338c0 9.186-7.444 16.63-16.63 16.63h-105.136v100.884h345.5v-100.884h-105.136c-9.186 0-16.63-7.444-16.63-16.63v-146.338c0-9.186 7.444-16.63 16.63-16.63h243.53c9.186 0 16.63 7.444 16.63 16.63v146.338c0.002 9.192-7.442 16.636-16.628 16.636zM243.53 89.914v-113.080h-210.272v113.080h210.272zM835.534 497.888v-113.080h-210.27v113.080h210.27zM713.77 257.316h-413.848v94.234h8.59c9.186 0 16.63 7.444 16.63 16.63s-7.444 16.63-16.63 16.63h-130.354v113.080h210.272v-113.080h-11.388c-9.186 0-16.63-7.444-16.63-16.63s7.444-16.63 16.63-16.63h28.018c9.186 0 16.63 7.444 16.63 16.63v146.338c0 9.186-7.444 16.63-16.63 16.63h-105.138v82.038h413.846v-82.038h-105.136c-9.186 0-16.63-7.444-16.63-16.63v-146.338c0-9.186 7.444-16.63 16.63-16.63h105.136v-94.234zM780.47-23.164v113.080h210.27v-113.080h-210.27z" />
<glyph unicode="&#xe904;" d="M417.789 591.51h-245.66c-11.489 0-20.681-9.191-20.681-20.681v-245.66c0-11.489 9.191-20.681 20.681-20.681h245.66c11.489 0 20.681 9.191 20.681 20.681v245.66c0 11.489-9.191 20.681-20.681 20.681zM397.108 345.851h-204.299v204.299h204.299v-204.299z" />
<glyph unicode="&#xe905;" d="M172.129-64h245.66c11.489 0 20.681 9.191 20.681 20.681v102.149h413.402c11.489 0 20.681 9.191 20.681 20.681v741.366c0 11.489-9.191 20.681-20.681 20.681h-261.536l42.614 42.614c8.147 8.147 8.147 21.098 0 29.245s-21.098 8.147-29.245 0l-77.918-77.918c-8.147-8.147-8.147-21.098 0-29.245l77.918-77.918c3.969-3.969 9.4-6.058 14.623-6.058s10.654 2.089 14.623 6.058c8.147 8.147 8.147 21.098 0 29.245l-42.614 42.614h240.855v-700.005h-392.721v102.149c0 11.489-9.191 20.681-20.681 20.681h-245.66c-11.489 0-20.681-9.191-20.681-20.681v-245.66c0-11.28 9.4-20.681 20.681-20.681zM192.809 181.66h204.299v-204.299h-204.299v204.299z" />
<glyph unicode="&#xe906;" d="M438.469 939.319c0 11.489-9.191 20.681-20.681 20.681h-245.66c-11.489 0-20.681-9.191-20.681-20.681v-245.66c0-11.489 9.191-20.681 20.681-20.681h245.66c11.489 0 20.681 9.191 20.681 20.681v245.66zM397.108 714.34h-204.299v204.299h204.299v-204.299z" />
<glyph unicode="&#xe907;" glyph-name="org-struc" d="M361.6 633.6c-12.8-9.6-19.2-22.4-19.2-38.4v-41.6c0-12.8 9.6-19.2 19.2-19.2s19.2 9.6 19.2 19.2v41.6c0 3.2 0 6.4 3.2 6.4 35.2 28.8 73.6 48 83.2 51.2s12.8 12.8 12.8 22.4v60.8c0 6.4-3.2 12.8-9.6 16-3.2 0-3.2 3.2-3.2 6.4v60.8c0 19.2 16 35.2 35.2 35.2h12.8c19.2 0 35.2-16 35.2-35.2v-60.8c0-3.2 0-3.2-3.2-6.4s-6.4-9.6-6.4-16v-57.6c0-9.6 6.4-16 12.8-22.4 6.4-3.2 44.8-22.4 83.2-51.2 3.2-3.2 3.2-3.2 3.2-6.4v-41.6c0-12.8 9.6-19.2 19.2-19.2s19.2 9.6 19.2 19.2v41.6c0 16-6.4 28.8-19.2 38.4-32 25.6-64 44.8-80 51.2v38.4c6.4 9.6 12.8 19.2 12.8 32v60.8c0 41.6-35.2 76.8-76.8 76.8h-12.8c-41.6 0-76.8-35.2-76.8-76.8v-60.8c0-12.8 3.2-22.4 12.8-32v-38.4c-12.8-9.6-44.8-28.8-76.8-54.4zM1004.8 3.2c12.8 0 19.2 9.6 19.2 19.2v35.2c0 12.8-6.4 25.6-16 35.2-25.6 22.4-54.4 38.4-70.4 44.8v32c6.4 6.4 9.6 19.2 9.6 28.8v57.6c0 38.4-32 67.2-67.2 67.2h-12.8c-38.4 0-67.2-32-67.2-67.2v-54.4c0-9.6 3.2-22.4 9.6-28.8v-32c-16-9.6-41.6-25.6-70.4-44.8-9.6-9.6-16-22.4-16-35.2v-35.2c0-12.8 9.6-19.2 19.2-19.2s19.2 9.6 19.2 19.2v35.2c0 0 0 3.2 3.2 3.2 32 25.6 64 41.6 70.4 44.8s12.8 12.8 12.8 19.2v51.2c0 6.4-3.2 12.8-9.6 16 0 0 0 0 0 3.2v54.4c0 16 12.8 25.6 25.6 25.6h12.8c16 0 25.6-12.8 25.6-25.6v-54.4c0-3.2 0-3.2 0-3.2-6.4-3.2-9.6-9.6-9.6-16v-51.2c0-9.6 6.4-16 12.8-19.2s41.6-19.2 70.4-44.8c0 0 3.2-3.2 3.2-3.2v-35.2c3.2-12.8 12.8-22.4 25.6-22.4zM640 3.2c12.8 0 19.2 9.6 19.2 19.2v35.2c0 12.8-6.4 25.6-16 35.2-25.6 22.4-54.4 38.4-70.4 44.8v32c6.4 6.4 9.6 19.2 9.6 28.8v57.6c0 38.4-32 67.2-67.2 67.2h-12.8c-38.4 0-67.2-32-67.2-67.2v-54.4c0-9.6 3.2-22.4 9.6-28.8v-32c-16-9.6-41.6-25.6-70.4-44.8-9.6-9.6-16-22.4-16-35.2v-35.2c0-12.8 9.6-19.2 19.2-19.2s19.2 9.6 19.2 19.2v35.2c0 0 0 3.2 3.2 3.2 32 25.6 64 41.6 70.4 44.8s12.8 12.8 12.8 19.2v51.2c0 6.4-3.2 12.8-9.6 16 0 0 0 0 0 3.2v54.4c0 16 12.8 25.6 25.6 25.6h12.8c16 0 25.6-12.8 25.6-25.6v-54.4c0-3.2 0-3.2 0-3.2-6.4-3.2-9.6-9.6-9.6-16v-51.2c0-9.6 6.4-16 12.8-19.2s41.6-19.2 70.4-44.8c0 0 3.2-3.2 3.2-3.2v-35.2c6.4-12.8 16-22.4 25.6-22.4zM144 281.6h12.8c16 0 25.6-12.8 25.6-25.6v-51.2c0 0 0-3.2 0-3.2-6.4-3.2-9.6-9.6-9.6-16v-51.2c0-9.6 6.4-16 12.8-19.2s38.4-19.2 70.4-44.8c0-6.4 0-6.4 0-9.6v-35.2c0-12.8 9.6-19.2 19.2-19.2 12.8 0 19.2 9.6 19.2 19.2v35.2c0 12.8-6.4 25.6-16 35.2-25.6 22.4-54.4 38.4-67.2 44.8v32c6.4 6.4 9.6 19.2 9.6 28.8v54.4c0 38.4-32 67.2-67.2 67.2h-9.6c-38.4 0-67.2-32-67.2-67.2v-51.2c0-9.6 3.2-22.4 9.6-28.8v-32c-16-9.6-41.6-25.6-67.2-44.8-12.8-9.6-19.2-22.4-19.2-38.4v-35.2c0-12.8 9.6-19.2 19.2-19.2s19.2 9.6 19.2 19.2v35.2c0 0 0 3.2 3.2 3.2 32 25.6 64 41.6 70.4 44.8 9.6 6.4 16 16 16 22.4v51.2c0 6.4-3.2 12.8-9.6 16 0 0 0 0 0 3.2v54.4c-3.2 12.8 9.6 25.6 25.6 25.6zM873.6 348.8c12.8 0 19.2 9.6 19.2 19.2v80c0 12.8-9.6 19.2-19.2 19.2h-339.2v57.6c0 12.8-9.6 19.2-19.2 19.2-12.8 0-19.2-9.6-19.2-19.2v-57.6h-345.6c-12.8 0-22.4-9.6-22.4-19.2v-76.8c0-12.8 9.6-19.2 19.2-19.2 12.8 0 19.2 9.6 19.2 19.2v57.6h323.2v-57.6c0-12.8 9.6-19.2 19.2-19.2 12.8 0 19.2 9.6 19.2 19.2v57.6h320v-57.6c6.4-12.8 12.8-22.4 25.6-22.4z" />
<glyph unicode="&#xe908;" glyph-name="userrole" d="M508.289 408.24c1.060 0 2.121 0 3.393 0 0.424 0 0.848 0 1.272 0 0.636 0 1.484 0 2.121 0 62.131 1.060 112.388 22.902 149.497 64.676 81.64 92.031 68.069 249.797 66.584 264.853-5.301 113.024-58.738 167.097-102.845 192.331-32.868 18.873-71.25 29.051-114.084 29.899h-1.484c-0.212 0-0.636 0-0.848 0h-1.272c-23.538 0-69.765-3.817-114.084-29.051-44.531-25.234-98.816-79.308-104.118-193.18-1.484-15.056-15.056-172.823 66.584-264.853 36.897-41.774 87.153-63.616 149.285-64.676zM349.038 732.468c0 0.636 0.212 1.272 0.212 1.696 6.998 152.041 114.932 168.369 161.16 168.369h0.848c0.424 0 1.060 0 1.696 0 57.254-1.272 154.586-24.598 161.16-168.369 0-0.636 0-1.272 0.212-1.696 0.212-1.484 15.056-145.68-52.377-221.595-26.719-30.111-62.343-44.955-109.207-45.379-0.424 0-0.636 0-1.060 0v0c-0.424 0-0.636 0-1.060 0-46.651 0.424-82.488 15.268-108.995 45.379-67.221 75.491-52.801 220.322-52.589 221.595zM947.449 146.568c0 0.212 0 0.424 0 0.636 0 1.696-0.212 3.393-0.212 5.301-1.272 41.986-4.029 140.166-96.060 171.55-0.636 0.212-1.484 0.424-2.121 0.636-95.636 24.386-175.155 79.52-176.003 80.156-12.935 9.118-30.748 5.937-39.866-6.998s-5.937-30.748 6.998-39.866c3.605-2.545 88.002-61.283 193.604-88.426 49.408-17.6 54.922-70.401 56.406-118.749 0-1.908 0-3.605 0.212-5.301 0.212-19.085-1.060-48.56-4.453-65.524-34.352-19.509-169.006-86.941-373.848-86.941-203.994 0-339.496 67.645-374.060 87.153-3.393 16.964-4.877 46.439-4.453 65.524 0 1.696 0.212 3.393 0.212 5.301 1.484 48.348 6.998 101.149 56.406 118.749 105.602 27.143 189.999 86.093 193.604 88.426 12.935 9.118 16.116 26.931 6.998 39.866s-26.931 16.116-39.866 6.998c-0.848-0.636-79.944-55.77-176.003-80.156-0.848-0.212-1.484-0.424-2.121-0.636-92.031-31.596-94.787-129.776-96.060-171.55 0-1.908 0-3.605-0.212-5.301 0-0.212 0-0.424 0-0.636-0.212-11.027-0.424-67.645 10.815-96.060 2.121-5.513 5.937-10.179 11.027-13.359 6.362-4.241 158.827-101.361 413.926-101.361s407.564 97.332 413.926 101.361c4.877 3.181 8.906 7.846 11.027 13.359 10.603 28.203 10.391 84.821 10.179 95.848z" />
<glyph unicode="&#xe909;" glyph-name="learnjourney" d="M860.952 960h-593.683c-70.016 0-126.976-56.964-126.976-126.98v-770.042c0-70.018 56.962-126.98 126.98-126.98h593.681c12.568 0 22.758 10.188 22.758 22.758 0 0.482-0.044 0.954-0.072 1.43 0.030 0.476 0.072 0.946 0.072 1.43v975.626c-0.002 12.57-10.194 22.758-22.76 22.758zM244.512-15.23c-33.876 9.878-58.704 41.186-58.704 78.206v672.735c16.532-13.862 36.634-23.578 58.704-27.59v-723.351zM267.269 751.558c-44.918 0-81.462 36.546-81.462 81.462s36.546 81.462 81.462 81.462h496.377c-18.502-22.066-29.672-50.48-29.672-81.462s11.17-59.396 29.672-81.462h-496.377zM690.269 706.040v-133.524l-27.176 20.236c-8.070 6.010-19.128 6.008-27.198-0.010l-27.448-20.468v133.766h81.822zM838.194-18.484h-548.167v724.523h272.905v-179.126c0-8.61 4.858-16.482 12.554-20.342 3.228-1.62 6.722-2.416 10.202-2.416 4.816 0 9.602 1.528 13.61 4.516l50.216 37.448 49.924-37.176c6.904-5.142 16.118-5.946 23.806-2.084 7.692 3.862 12.546 11.732 12.546 20.338v178.844h102.404v-724.525zM838.194 754.814c-33.876 9.876-58.706 41.186-58.706 78.208s24.83 68.328 58.704 78.204v-156.412zM675.747 415.087h-223.276c-12.57 0-22.758-10.188-22.758-22.758 0-12.572 10.192-22.758 22.758-22.758h223.276c12.568 0 22.758 10.188 22.758 22.758s-10.192 22.758-22.758 22.758zM739.347 272.469h-350.477c-12.57 0-22.758-10.188-22.758-22.758s10.188-22.758 22.758-22.758h350.477c12.568 0 22.758 10.188 22.758 22.758s-10.188 22.758-22.758 22.758z" />
<glyph unicode="&#xe90a;" glyph-name="book-lib" d="M512 960h-221.867c-9.425 0-17.067-7.642-17.067-17.067v-119.467h-256c-9.425 0-17.067-7.642-17.067-17.067v-853.333c0-9.425 7.642-17.067 17.067-17.067h494.933c9.425 0 17.067 7.642 17.067 17.067v989.867c0 9.425-7.642 17.067-17.067 17.067zM494.933 72.533h-187.733v34.133h187.733zM34.133 704h238.933v-512h-238.933zM494.933 772.267h-187.733v51.2h187.733zM34.133 157.867h238.933v-51.2h-238.933zM307.2 140.8v597.333h187.733v-597.333zM494.933 925.867v-68.267h-187.733v68.267zM273.067 789.333v-51.2h-238.933v51.2zM34.133 72.533h238.933v-102.4h-238.933zM307.2-29.867v68.267h187.733v-68.267zM1023.45 25.633l-204.8 785.067c-1.142 4.4-3.992 8.158-7.925 10.45-3.925 2.283-8.6 2.908-12.992 1.733l-256-68.267c-9.067-2.417-14.483-11.7-12.117-20.783l204.8-785.067c1.142-4.4 4-8.158 7.933-10.442 3.925-2.275 8.6-2.892 12.983-1.708l256 68.267c9.050 2.417 14.458 11.683 12.117 20.75zM594.125 621.775l223.025 59.458 8.025-30.717-223.008-59.55zM833.792 617.4l98.983-379.692-222.942-59.483-98.983 379.717zM941.467 204.667l17.475-66.975-223.025-59.458-17.408 66.95zM789.95 785.492l18.583-71.25-223.025-59.442-18.567 71.217zM763.117-26.025l-18.583 71.25 223.025 59.475 18.567-71.217zM221.867 652.8h-136.533c-9.425 0-17.067-7.642-17.067-17.067v-136.533c0-9.425 7.642-17.067 17.067-17.067h136.533c9.425 0 17.067 7.642 17.067 17.067v136.533c0 9.425-7.642 17.067-17.067 17.067zM204.8 516.267h-102.4v102.4h102.4z" />
<glyph unicode="&#xe90b;" glyph-name="chart-report" d="M893.504 684.288c-1.6 3.904-3.968 7.424-6.912 10.368l-255.936 255.936c-2.944 2.944-6.464 5.312-10.368 6.912-3.84 1.6-8 2.496-12.288 2.496h-416c-35.264 0-64-28.736-64-64v-896c0-35.264 28.736-64 64-64h640c35.264 0 64 28.736 64 64v672c0 4.288-0.896 8.448-2.496 12.288zM640 850.752l146.752-146.752h-146.752v146.752zM832 0h-640v896h384v-192c0-35.264 28.736-64 64-64h192v-640zM512 576c-141.184 0-256-114.816-256-256s114.816-256 256-256 256 114.816 256 256-114.816 256-256 256zM544 508.736c80.128-13.568 143.168-76.608 156.736-156.736h-156.736v156.736zM512 128c-105.856 0-192 86.144-192 192 0 94.912 69.376 173.44 160 188.736v-188.736c0-17.664 14.336-32 32-32h188.736c-15.296-90.624-93.824-160-188.736-160z" />
<glyph unicode="&#xe90c;" glyph-name="checked-files" d="M142.751 102.615c-9.554 0-17.358 7.777-17.358 17.354v638.752c0 9.575 7.804 17.35 17.358 17.35h443.856c9.575 0 17.346-7.777 17.346-17.35v-322.781c21.583 9.49 44.634 16.114 68.616 19.866v302.914c0 47.4-38.564 85.962-85.962 85.962h-345.992v29.354c0 9.587 7.804 17.346 17.346 17.346h443.856c9.554 0 17.358-7.761 17.358-17.346v-414.749c23.35-0.266 46.24-3.717 68.614-9.808v424.557c0.002 47.41-38.562 85.962-85.972 85.962h-443.856c-47.41 0-85.962-38.552-85.962-85.962v-29.352h-29.247c-47.377 0-85.972-38.562-85.972-85.962v-638.752c0-47.404 38.595-85.966 85.972-85.966h336.141c-13.177 21.173-23.616 44.151-30.789 68.612h-305.352zM247.948 596.895h178.506c18.966 0 34.306 15.344 34.306 34.31 0 18.956-15.34 34.306-34.306 34.306h-178.506c-18.933 0-34.308-15.352-34.308-34.306 0-18.966 15.375-34.31 34.308-34.31zM481.4 528.173h-233.452c-18.933 0-34.308-15.34-34.308-34.306 0-18.96 15.375-34.31 34.308-34.31h233.452c18.935 0 34.308 15.352 34.308 34.31 0 18.968-15.373 34.306-34.308 34.306zM512.352 370.842c-5.426 11.759-17.156 20.039-30.952 20.039h-233.452c-18.933 0-34.308-15.344-34.308-34.31 0-18.964 15.375-34.31 34.308-34.31h227.952c10.388 17.519 22.624 33.804 36.453 48.581zM213.64 219.277c0-18.968 15.375-34.306 34.308-34.306h189.099c0.365 23.711 3.818 46.669 9.777 68.608h-198.876c-18.933 0-34.308-15.34-34.308-34.302zM900.63 227.744c3.86-15.104 6.132-30.884 6.132-47.171 0-105.324-85.704-191.035-191.041-191.035-105.368 0-191.074 85.708-191.074 191.035 0 105.378 85.706 191.070 191.074 191.070 26.836 0 52.372-5.629 75.584-15.641l28.413 45.629c-31.629 14.948-66.773 23.559-103.997 23.559-134.883 0-244.604-109.723-244.604-244.619 0-134.85 109.721-244.573 244.604-244.573 134.852 0 244.581 109.723 244.581 244.573 0 37.491-8.745 72.901-23.856 104.672l-35.817-57.499zM946.197 452.858c-7.336 4.559-15.482 6.745-23.555 6.745-14.869 0-29.453-7.439-37.889-21.012l-177.371-285.046-59.439 84.761c-8.673 12.359-22.512 18.968-36.58 18.968-8.844 0-17.755-2.621-25.571-8.087-20.134-14.13-25.055-41.937-10.881-62.11l98.131-139.981c8.376-11.92 22.011-18.987 36.55-18.987 0.407 0 0.805 0 1.212 0 14.979 0.427 28.741 8.308 36.655 21.003l213.008 342.308c13.036 20.931 6.636 48.444-14.269 61.437z" />
<glyph unicode="&#xe90d;" glyph-name="handshake" d="M1019.204 617.852l-198.599 198.601c-6.386 6.388-16.74 6.388-23.13 0l-99.299-99.299c-3.066-3.066-4.788-7.226-4.788-11.564s1.722-8.498 4.788-11.564l9.906-9.906-22.764-22.76c-14.778-14.772-37.708-18.804-57.056-10.022-18.14 8.234-38.306 12.584-58.322 12.584-23.766 0-46.992-5.966-67.628-17.266-8.606 2.12-17.438 3.206-26.358 3.206-12.9 0-25.57-2.226-37.658-6.62-19.302-7.012-39.992-2.666-54.006 11.344l-40.874 40.876 4.868 4.868c3.066 3.066 4.788 7.226 4.788 11.564s-1.722 8.498-4.788 11.564l-99.299 99.299c-6.39 6.388-16.742 6.388-23.13 0l-221.067-221.067c-6.386-6.388-6.386-16.742 0-23.128l99.297-99.299c3.068-3.068 7.226-4.79 11.566-4.79s8.496 1.722 11.566 4.79l5.922 5.922 28.828-28.828c7.274-7.274 12.096-16.356 13.942-26.262 9.572-51.366 34.172-98.063 71.14-135.051l5.43-5.43c-10.428-10.982-16.164-25.29-16.164-40.49 0-15.722 6.124-30.504 17.24-41.622 11.476-11.476 26.546-17.212 41.622-17.212 0.982 0 1.96 0.026 2.942 0.076-0.796-16.038 4.916-32.34 17.136-44.564 11.118-11.118 25.9-17.24 41.622-17.24 0.438 0 0.874 0.022 1.312 0.032-0.336-15.498 5.382-31.104 17.182-42.906 11.118-11.12 25.9-17.24 41.624-17.24 15.722 0 30.502 6.124 41.622 17.24 0.936 0.936 1.818 1.904 2.68 2.884 5.79-2.018 11.914-3.092 18.104-3.092 14.706 0 28.522 5.73 38.882 16.124 5.514 5.512 9.698 11.996 12.422 19.058l1.674-1.674c10.718-10.718 24.796-16.078 38.874-16.078s28.156 5.36 38.874 16.078c5.696 5.696 9.976 12.422 12.688 19.756 9.594-6.978 20.952-10.472 32.316-10.472 14.078 0 28.164 5.358 38.892 16.072 10.382 10.382 16.1 24.194 16.1 38.89 0 4.44-0.532 8.794-1.546 13.004 10.474 2.128 20.098 7.27 27.82 15.002 10.382 10.382 16.1 24.188 16.1 38.874 0 11.57-3.564 22.584-10.146 31.82l13.12 13.12c37.398 37.416 62.104 84.7 71.45 136.741 1.566 8.714 5.882 16.808 12.486 23.414l48.796 48.796 8.578-8.578c3.194-3.194 7.38-4.79 11.566-4.79 4.184 0 8.372 1.596 11.566 4.79l99.299 99.299c3.066 3.066 4.788 7.226 4.788 11.564s-1.728 8.494-4.794 11.562zM115.653 513.953l-76.172 76.172 197.937 197.937 76.174-76.172-197.939-197.937zM313.67 230.626c-10.194-10.192-26.784-10.196-36.986 0-4.94 4.942-7.66 11.508-7.66 18.494 0 6.984 2.722 13.552 7.662 18.492 5.098 5.098 11.792 7.648 18.49 7.648 6.696 0 13.396-2.55 18.492-7.648 10.196-10.196 10.196-26.788 0.002-36.986zM375.366 168.931c-4.936-4.942-11.502-7.66-18.492-7.66-6.984 0-13.552 2.722-18.49 7.66-10.198 10.196-10.198 26.788 0 36.986 5.098 5.098 11.792 7.648 18.492 7.648 6.694 0 13.394-2.55 18.49-7.648 10.2-10.196 10.2-26.79 0-36.986zM435.481 108.817c-4.94-4.94-11.506-7.66-18.49-7.66-6.986 0-13.554 2.722-18.492 7.66-10.198 10.196-10.198 26.788 0 36.986 5.098 5.098 11.792 7.648 18.492 7.648 6.694 0 13.394-2.55 18.49-7.648 10.198-10.198 10.198-26.79 0-36.986zM713.256 234.36c-4.204-4.208-9.794-6.526-15.738-6.526s-11.534 2.318-15.746 6.536l-158.659 158.623c-6.392 6.386-16.744 6.384-23.13-0.004-6.384-6.386-6.382-16.742 0.004-23.128l170.901-170.883c4.206-4.204 6.52-9.796 6.52-15.744 0-5.96-2.316-11.558-6.514-15.756-8.694-8.686-22.832-8.688-31.512-0.006l-28.832 28.832c-0.16 0.166-0.316 0.334-0.482 0.498-0.048 0.048-0.102 0.090-0.152 0.138l-132.533 132.533c-6.39 6.386-16.742 6.386-23.13 0s-6.388-16.742 0-23.128l132.959-132.957c4.064-4.166 6.302-9.678 6.302-15.526 0-5.948-2.318-11.54-6.522-15.744-8.676-8.682-22.802-8.682-31.486 0l-144.169 144.171c-6.39 6.388-16.742 6.388-23.13 0-6.388-6.386-6.388-16.742 0-23.128l106.867-106.869c0.030-0.030 0.054-0.064 0.086-0.092 4.202-4.194 6.514-9.776 6.514-15.718 0-5.946-2.316-11.538-6.538-15.76-4.198-4.208-9.786-6.526-15.74-6.526-1.438 0-2.844 0.148-4.22 0.408 2.646 17.826-2.872 36.64-16.564 50.334-11.118 11.116-25.9 17.24-41.622 17.24-0.438 0-0.874-0.022-1.312-0.032 0.336 15.498-5.38 31.104-17.182 42.906-11.12 11.116-25.9 17.24-41.624 17.24-0.984 0-1.962-0.024-2.938-0.072 0.786 16.028-4.926 32.316-17.14 44.532-14.868 14.866-35.768 20.088-54.888 15.694l-11.728 11.728c-32.28 32.294-53.756 73.070-62.114 117.919-3.062 16.426-11.004 31.434-22.966 43.398l-28.83 28.83 164.019 164.019 40.876-40.876c15.712-15.712 37.104-24.12 59.014-24.12 9.812 0 19.734 1.688 29.292 5.162 4.636 1.686 9.43 2.896 14.288 3.664l-101.263-101.265c-12.39-12.388-19.214-28.86-19.214-46.382 0-17.52 6.824-33.992 19.212-46.38 12.788-12.788 29.58-19.18 46.38-19.178 16.796 0 33.594 6.396 46.384 19.178l50.86 50.86 13.766-13.776c0.004-0.004 0.006-0.006 0.010-0.010l1.122-1.122c0.002-0.002 0.006-0.006 0.010-0.008l0.010-0.010c0.158-0.156 0.312-0.304 0.466-0.452l191.761-191.761c4.206-4.204 6.52-9.796 6.52-15.744 0-5.958-2.314-11.55-6.526-15.76zM816.269 478.335c-11.348-11.35-18.8-25.446-21.548-40.762-8.16-45.44-29.734-86.727-62.386-119.395l-12.568-12.57-103.461 103.461c2.248-0.166 4.506-0.276 6.78-0.276 10.476 0 21.196 1.836 31.868 6.202 8.36 3.42 12.364 12.97 8.944 21.328s-12.962 12.364-21.328 8.944c-42.092-17.222-92.555 30.24-98.173 35.71-0.094 0.092-0.188 0.182-0.284 0.27l-0.58 0.58c-0.002 0.002-0.004 0.002-0.006 0.004l-0.506 0.504c-0.002 0.002-0.006 0.006-0.010 0.008l-13.768 13.778 15.612 15.614c6.39 6.388 6.39 16.742 0.002 23.13-6.388 6.384-16.742 6.386-23.128 0l-27.14-27.14c-0.010-0.010-0.022-0.020-0.032-0.030s-0.020-0.022-0.030-0.032l-62.4-62.4c-12.824-12.822-33.684-12.818-46.504 0-6.21 6.21-9.63 14.468-9.63 23.252s3.42 17.042 9.632 23.252l107.703 107.707c5.992 5.99 12.652 11.26 19.81 15.674 17.006 10.512 36.648 16.068 56.802 16.068 15.386 0 30.878-3.34 44.806-9.662 31.684-14.376 69.342-7.678 93.701 16.676l22.766 22.762 133.857-133.857-48.802-48.8zM908.339 530.115l-175.471 175.471 76.174 76.172 175.471-175.471-76.174-76.172zM941.168 593.782c0-9.032-7.322-16.354-16.354-16.354s-16.354 7.322-16.354 16.354c0 9.032 7.322 16.354 16.354 16.354s16.354-7.322 16.354-16.354zM123.487 577.624c0-9.032-7.322-16.354-16.354-16.354s-16.354 7.322-16.354 16.354c0 9.032 7.322 16.354 16.354 16.354s16.354-7.322 16.354-16.354z" />
<glyph unicode="&#xe90e;" glyph-name="hierarchy-struc" d="M1007.37 123.174h-105.136v117.514c0 9.186-7.444 16.63-16.63 16.63h-138.578v94.234h105.136c9.186 0 16.63 7.444 16.63 16.63v146.338c0 9.186-7.444 16.63-16.63 16.63h-105.136v98.668c0 9.186-7.444 16.63-16.63 16.63h-201.766v95.342h49.99c9.186 0 16.63 7.444 16.63 16.63s-7.444 16.63-16.63 16.63h-249.542v144.116h365.846v-144.122h-47.772c-9.186 0-16.63-7.444-16.63-16.63s7.444-16.63 16.63-16.63h64.402c9.186 0 16.63 7.444 16.63 16.63v177.38c0 9.186-7.444 16.63-16.63 16.63h-399.106c-9.186 0-16.63-7.444-16.63-16.63v-177.38c0-9.186 7.444-16.63 16.63-16.63h182.922v-95.342h-212.076c-9.186 0-16.63-7.444-16.63-16.63v-98.668h-105.136c-9.186 0-16.63-7.444-16.63-16.63v-146.338c0-9.186 7.444-16.63 16.63-16.63h105.136v-94.234h-128.27c-9.186 0-16.63-7.444-16.63-16.63v-117.514h-105.134c-9.186 0-16.63-7.444-16.63-16.63v-146.338c0-9.186 7.444-16.63 16.63-16.63h243.53c9.186 0 16.63 7.444 16.63 16.63v146.338c0 9.186-7.444 16.63-16.63 16.63h-105.136v100.884h335.194v-100.884h-105.138c-9.186 0-16.63-7.444-16.63-16.63v-146.338c0-9.186 7.444-16.63 16.63-16.63h126.92c9.186 0 16.63 7.444 16.63 16.63s-7.444 16.63-16.63 16.63h-110.29v113.080h210.272v-113.080h-31.452c-9.186 0-16.63-7.444-16.63-16.63s7.444-16.63 16.63-16.63h48.080c9.186 0 16.63 7.444 16.63 16.63v146.338c0 9.186-7.444 16.63-16.63 16.63h-105.136v100.884h345.5v-100.884h-105.136c-9.186 0-16.63-7.444-16.63-16.63v-146.338c0-9.186 7.444-16.63 16.63-16.63h243.53c9.186 0 16.63 7.444 16.63 16.63v146.338c0.002 9.192-7.442 16.636-16.628 16.636zM243.53 89.914v-113.080h-210.272v113.080h210.272zM835.534 497.888v-113.080h-210.27v113.080h210.27zM713.77 257.316h-413.848v94.234h8.59c9.186 0 16.63 7.444 16.63 16.63s-7.444 16.63-16.63 16.63h-130.354v113.080h210.272v-113.080h-11.388c-9.186 0-16.63-7.444-16.63-16.63s7.444-16.63 16.63-16.63h28.018c9.186 0 16.63 7.444 16.63 16.63v146.338c0 9.186-7.444 16.63-16.63 16.63h-105.138v82.038h413.846v-82.038h-105.136c-9.186 0-16.63-7.444-16.63-16.63v-146.338c0-9.186 7.444-16.63 16.63-16.63h105.136v-94.234zM780.47-23.164v113.080h210.27v-113.080h-210.27z" />
<glyph unicode="&#xe90f;" glyph-name="home" d="M1013.11 543.872l-485.392 355.394c-9.36 6.852-22.076 6.852-31.432 0l-485.396-355.394c-11.856-8.682-14.432-25.33-5.75-37.186s25.332-14.428 37.186-5.75l469.674 343.888 469.674-343.886c4.736-3.47 10.24-5.14 15.696-5.14 8.192 0 16.276 3.77 21.488 10.89 8.684 11.854 6.108 28.502-5.748 37.184zM884.492 494.914c-14.692 0-26.606-11.912-26.606-26.606v-423.498h-212.844v231.172c0 73.36-59.684 133.040-133.040 133.040s-133.040-59.684-133.040-133.040v-231.174h-212.846v423.498c0 14.694-11.914 26.606-26.606 26.606s-26.606-11.912-26.606-26.606v-450.106c0-14.694 11.914-26.606 26.606-26.606h266.058c13.992 0 25.442 10.81 26.502 24.534 0.064 0.622 0.104 1.302 0.104 2.072v257.78c0 44.018 35.81 79.828 79.828 79.828s79.828-35.812 79.828-79.828v-257.78c0-0.766 0.040-1.434 0.104-2.048 1.048-13.734 12.502-24.558 26.502-24.558h266.058c14.694 0 26.606 11.912 26.606 26.606v450.106c-0.002 14.696-11.914 26.608-26.608 26.608z" />
<glyph unicode="&#xe910;" glyph-name="group" d="M905.020 324c-60.98 50.16-126.64 85.32-150.12 97.3v88.7c13.301 11.989 21.634 29.269 21.66 48.495v107.805c-0.091 62.721-50.917 113.54-113.632 113.62h-23.168c-62.722-0.080-113.549-50.899-113.64-113.611v-107.809c0.026-19.231 8.359-36.511 21.602-48.448l0.058-0.052v-88.64c-23.48-12-88.96-47.3-150.12-97.46-15.305-12.697-24.98-31.72-24.98-53.003 0-0.055 0-0.111 0-0.166v0.009-73.8c-0.006-0.171-0.010-0.372-0.010-0.574 0-9.113 7.387-16.5 16.5-16.5s16.5 7.387 16.5 16.5c0 0.202-0.004 0.403-0.011 0.603l0.001-0.029v73.8c0 0.068-0.001 0.148-0.001 0.229 0 11.030 5.039 20.882 12.939 27.382l0.061 0.049c65.48 53.82 136.62 89.64 150.12 96.32 7.158 3.5 12 10.728 12 19.087 0 0.026 0 0.051 0 0.077v-0.004 104c-0.030 5.672-2.911 10.665-7.282 13.623l-0.058 0.037c-8.624 5.776-14.244 15.454-14.32 26.449v107.811c0.046 44.518 36.122 80.595 80.636 80.64h23.164c44.518-0.046 80.595-36.122 80.64-80.636v-107.804c-0.004-11.082-5.642-20.847-14.205-26.587l-0.115-0.073c-4.445-2.914-7.341-7.873-7.341-13.509 0-0.053 0-0.106 0.001-0.159v0.008-103.68c0-0.014 0-0.031 0-0.048 0-8.366 4.841-15.601 11.875-19.057l0.125-0.055c13.66-6.66 84.64-42.48 150.12-96.3 7.959-6.643 12.989-16.563 13-27.658v-73.822c-0.006-0.171-0.010-0.372-0.010-0.574 0-9.113 7.387-16.5 16.5-16.5s16.5 7.387 16.5 16.5c0 0.202-0.004 0.403-0.011 0.603l0.001-0.029v73.78c0 0.019 0 0.041 0 0.063 0 21.312-9.673 40.364-24.868 53.006l-0.112 0.091zM415.82 578.9v-87.8c-0.010-7.969-4.072-14.988-10.236-19.107l-0.084-0.053c-4.446-2.923-7.341-7.889-7.341-13.53 0-0.046 0-0.091 0.001-0.137v0.007-69.48c0-9.113 7.387-16.5 16.5-16.5s16.5 7.387 16.5 16.5v0 61.48c10.883 10.24 17.66 24.737 17.66 40.817 0 0.001 0 0.002 0 0.003v0 87.8c-0.136 52.822-42.966 95.595-95.796 95.64h-18.844c-52.789-0.068-95.563-42.849-95.62-95.635v-87.805c0-0.016 0-0.035 0-0.055 0-16.064 6.778-30.544 17.63-40.738l0.030-0.028v-68.98c-20.5-10.5-72.66-38.82-121.14-78.64-13.169-10.847-21.501-27.154-21.501-45.408 0-0.089 0-0.177 0.001-0.266v0.014-60.14c0-9.113 7.387-16.5 16.5-16.5s16.5 7.387 16.5 16.5v60.14c0 0.014 0 0.031 0 0.048 0 8.064 3.646 15.276 9.379 20.079l0.041 0.033c53.14 43.66 110.62 72.66 121.8 78.14 6.827 3.41 11.442 10.332 11.48 18.335v84.645c0 0.008 0 0.017 0 0.026 0 5.676-2.863 10.684-7.223 13.658l-0.057 0.037c-6.253 4.17-10.321 11.188-10.34 19.157v87.803c0.079 34.574 28.086 62.581 62.652 62.66h18.828c34.608-0.057 62.646-28.108 62.68-62.717v-0.003zM687.080 400.62c-0.024 0-0.052 0-0.080 0-9.069 0-16.42-7.351-16.42-16.42 0-0.021 0-0.042 0-0.063v0.003c0-10.582-8.578-19.16-19.16-19.16v0c-0.072-0.001-0.157-0.002-0.241-0.002-3.906 0-7.522 1.244-10.473 3.359l0.054-0.037c-0.684 0.695-1.452 1.303-2.288 1.811l-0.052 0.029c-3.793 3.488-6.161 8.475-6.161 14.014 0 0.051 0 0.103 0.001 0.154v-0.008c0.006 0.171 0.010 0.372 0.010 0.574 0 9.113-7.387 16.5-16.5 16.5s-16.5-7.387-16.5-16.5c0-0.202 0.004-0.403 0.011-0.603l-0.001 0.029c0.014-13.324 5.002-25.48 13.207-34.713l-0.047 0.053-11.16-246c-0.008-0.193-0.013-0.419-0.013-0.646 0-4.899 2.122-9.302 5.498-12.341l0.015-0.013 34.82-31.24c2.897-2.645 6.752-4.283 10.988-4.34h0.012c0.040 0 0.087-0.001 0.134-0.001 4.181 0 7.99 1.587 10.859 4.193l34.407 30.748c3.379 3.054 5.493 7.453 5.493 12.346 0 0.23-0.005 0.459-0.014 0.687l0.001-0.033-10.74 249c6.992 8.686 11.233 19.845 11.26 31.994v0.006c-0.297 9.162-7.732 16.492-16.908 16.62h-0.012zM652.42 93.56l-18 16.16 10 222.42c2.002-0.31 4.316-0.492 6.672-0.5h0.008c3.197 0.035 6.299 0.339 9.314 0.891l-0.334-0.051 9.68-223.26z" />
<glyph unicode="&#xe911;" glyph-name="org" d="M257.66 328.96h191.44c0.036 0 0.078 0 0.12 0 8.837 0 16 7.163 16 16 0 0.042 0 0.085 0 0.127v-0.007 191.44c0 0.036 0 0.078 0 0.12 0 8.837-7.163 16-16 16-0.042 0-0.085 0-0.127 0h-191.433c-0.036 0-0.078 0-0.12 0-8.837 0-16-7.163-16-16 0-0.042 0-0.085 0-0.127v0.007-191.44c0-0.036 0-0.078 0-0.12 0-8.837 7.163-16 16-16 0.042 0 0.085 0 0.127 0h-0.007zM273.78 520.4h159.2v-159.2h-159.2zM787.38 747.5h-203.82l33.22 33.2c2.658 2.866 4.288 6.717 4.288 10.948 0 8.903-7.217 16.12-16.12 16.12-4.232 0-8.083-1.631-10.959-4.298l0.010 0.009-60.72-60.72c-2.941-2.903-4.763-6.934-4.763-11.39s1.822-8.487 4.761-11.388l60.722-60.722c2.917-2.918 6.948-4.723 11.4-4.723s8.483 1.805 11.4 4.723v0c2.941 2.903 4.763 6.934 4.763 11.39s-1.822 8.487-4.761 11.388l-33.222 33.222h187.7v-545.5h-306v79.6c0 0.036 0 0.078 0 0.12 0 8.837-7.163 16-16 16-0.042 0-0.085 0-0.127 0h-191.493c-0.036 0-0.078 0-0.12 0-8.837 0-16-7.163-16-16 0-0.042 0-0.085 0-0.127v0.007-191.36c0.078-8.871 7.249-16.042 16.113-16.12h191.447c0.036 0 0.078 0 0.12 0 8.837 0 16 7.163 16 16 0 0.042 0 0.085 0 0.127v-0.007 79.6h322.16c0.036 0 0.078 0 0.12 0 8.837 0 16 7.163 16 16 0 0.042 0 0.085 0 0.127v-0.007 577.66c0 0.036 0 0.078 0 0.12 0 8.837-7.163 16-16 16-0.042 0-0.085 0-0.127 0h0.007zM432.98 74h-159.2v159.2h159.2zM257.66 616.12h191.44c0.036 0 0.078 0 0.12 0 8.837 0 16 7.163 16 16 0 0.042 0 0.085 0 0.127v-0.007 191.44c0 0.036 0 0.078 0 0.12 0 8.837-7.163 16-16 16-0.042 0-0.085 0-0.127 0h-191.433c-0.036 0-0.078 0-0.12 0-8.837 0-16-7.163-16-16 0-0.042 0-0.085 0-0.127v0.007-191.44c0-0.036 0-0.078 0-0.12 0-8.837 7.163-16 16-16 0.042 0 0.085 0 0.127 0h-0.007zM273.78 807.56h159.2v-159.2h-159.2z" />
<glyph unicode="&#xe912;" glyph-name="report" d="M854.26-52.36h-688.26c-0.892 0.307-2.065 0.63-3.26 0.895l-0.24 0.045c-27.1 4.22-46.74 26.46-46.74 53.26q0 423.18 0 846.32c0 0.019 0 0.042 0 0.064 0 26.627 19.329 48.739 44.722 53.071l0.318 0.045c5.333 0.81 11.487 1.272 17.749 1.272 0.616 0 1.23-0.004 1.844-0.013l-0.093 0.001q333.64 0 667.26 0c4.588-0.003 9.097-0.323 13.512-0.939l-0.512 0.059c26.556-3.842 46.743-26.412 46.82-53.712v-0.008q0-123.34 0.28-246.66c0-5.58 0.46-11.14 0.7-16.72v-302.16c-0.18-1.84-0.48-3.68-0.5-5.52q0-21.66-0.1-43.36-0.22-116.32-0.4-232.6c0-24.84-20.44-48.46-44.9-52.16zM872.26 426.44h-0.14q0 208.88 0 417.76c0 15.86-7.34 23.1-23.060 23.1h-676.56c-12.9 0-20.8-7.080-21.72-19.88-0.42-5.72-0.2-11.48-0.2-17.22q0-155.76 0-311.48 0-255.5 0.1-511.020c-0.006-0.325-0.009-0.708-0.009-1.092 0-1.911 0.083-3.802 0.246-5.67l-0.017 0.242c0.552-8.77 6.977-15.891 15.361-17.501l0.119-0.019c2.138-0.377 4.6-0.593 7.113-0.593 0.593 0 1.184 0.012 1.772 0.036l-0.084-0.003h657.56c6.36 0 12.74 0 19.1 0 0.088-0.001 0.193-0.002 0.297-0.002 10.222 0 18.653 7.668 19.853 17.566l0.009 0.096c0.334 2.418 0.525 5.213 0.525 8.051 0 0.277-0.002 0.554-0.005 0.831v-0.042c0 28.9-0.16 57.82-0.16 86.72q-0.060 165.060-0.040 330.12zM619.64 50c12.36 26 24.36 51.18 36.36 76.4 8.78 18.5 17.76 36.92 26.2 55.58 2.062 4.449 3.31 9.645 3.419 15.121l0.001 0.039q0.42 70.42 0.1 140.8c0 4.7 1.16 6.18 6 6 48.18-2 87.36-22 116.46-60 69.7-91.12 21.48-221.68-90.68-246.16-9.658-2.343-20.746-3.687-32.148-3.687-21.87 0-42.585 4.944-61.088 13.775l0.857-0.368c-1.8 0.64-3.4 1.52-5.48 2.5zM509.24 181.58h152.44l-65.68-137.44c-46 13.74-94.56 90.52-86.76 137.44zM693.7 468.22q-54.3 0-108.58 0c-0.256-0.005-0.559-0.008-0.862-0.008-3.621 0-7.147 0.404-10.537 1.168l0.319-0.060c-9.58 2.36-16.44 12.28-16 22.54 0.45 10.239 7.74 18.654 17.391 20.812l0.149 0.028c2.863 0.535 6.156 0.84 9.521 0.84 0.070 0 0.14 0 0.209 0h-0.011q108.8 0.14 217.62 0.14c12.82 0 21.080-5 24.94-14.96 5.9-15.2-5.42-30.5-22.76-30.54q-51.24 0-102.52 0zM338.28 360.68q56 0 112 0c13.46 0 23.48-9.68 23.6-22.48 0-0.037 0-0.080 0-0.123 0-10.972-7.875-20.105-18.281-22.055l-0.139-0.022c-2.514-0.447-5.408-0.702-8.361-0.702-0.161 0-0.322 0.001-0.483 0.002h0.025q-105.38-0.12-210.78-0.16c-4.618 0.034-9.129 0.338-13.56 0.898l0.56-0.058c-12.24 1.48-21.020 11.14-20.6 22.44 0.48 12.233 10.42 21.991 22.682 22.18h0.018c8.7 0.26 17.4 0 26.12 0h87.2zM337.38 79.12q56.64 0 113.28 0c10.96 0 18-4.76 21.44-14 1.014-2.454 1.602-5.303 1.602-8.289 0-6.712-2.973-12.73-7.675-16.807l-0.028-0.023c-3.688-3.434-8.65-5.542-14.105-5.542-0.111 0-0.221 0.001-0.331 0.003h0.017q-113.52 0-227.020 0c-0.074-0.001-0.162-0.001-0.249-0.001-12.15 0-22 9.85-22 22 0 0.226 0.003 0.45 0.010 0.674l-0.001-0.033c0 12.68 9.18 21.86 22.18 21.88q56.44 0 112.82 0zM338.16 175.24c-37.6 0-75.22 0-112.82 0-15.72 0-26 13.56-22 28.4 2.6 9.68 11.56 16.22 22.42 16.22q46.38 0 92.78 0 66.2 0 132.42 0c15.84 0 26.14-13.74 21.88-28.9-2.74-9.72-11-15.64-22.22-15.66q-56.18 0-112.36 0zM693.84 749.8c-37.3 0-74.6 0-111.9 0-13.74 0-22.22 7.28-23.42 19.64-1.36 14 8.2 24.92 22.42 25 25.8 0.12 51.6 0 77.4 0q72.5 0 145.020 0c0.277 0.008 0.603 0.012 0.93 0.012 3.428 0 6.744-0.479 9.884-1.374l-0.254 0.062c8.974-2.696 15.4-10.883 15.4-20.572 0-1.303-0.116-2.579-0.339-3.819l0.019 0.13c-1.412-10.81-10.565-19.070-21.646-19.070-0.237 0-0.473 0.004-0.708 0.011l0.034-0.001q-56.42-0.1-112.84-0.020zM693.36 653.72c37.14 0 74.28-0.34 111.4 0.18 14.2 0.2 24.6-12.36 24.44-22.4-0.2-12.52-10.68-22.54-24.18-22.54q-111.62 0-223.28 0.12c-10.82 0-19.040 5.54-22.46 14.9-0.81 2.212-1.279 4.767-1.279 7.43 0 6.671 2.939 12.655 7.593 16.727l0.026 0.022c3.963 3.431 9.168 5.522 14.862 5.522 0.351 0 0.7-0.008 1.048-0.024l-0.049 0.002q56 0 111.88 0zM226.26 500.58h6q128.66 0 257.36-0.24c3.559-0.016 7.003-0.475 10.29-1.324l-0.29 0.064c3.721-0.828 6.461-4.101 6.461-8.014 0-0.051 0-0.103-0.001-0.154v0.008c-0.152-4.245-3.102-7.761-7.055-8.766l-0.065-0.014c-1.618-0.386-3.476-0.608-5.385-0.608-0.216 0-0.432 0.003-0.646 0.008l0.032-0.001h-270.86c-12 0.12-14.84 2.92-14.84 14.88q0 135 0 270c-0.001 0.091-0.001 0.198-0.001 0.306 0 2.512 0.211 4.975 0.617 7.372l-0.036-0.258c0.598 4.169 4.136 7.34 8.418 7.36h0.002c0.251 0.027 0.543 0.043 0.838 0.043 3.673 0 6.783-2.416 7.826-5.745l0.016-0.058c0.836-2.283 1.32-4.92 1.32-7.67 0-0.018 0-0.035 0-0.053v0.003q0-130.3 0-260.62zM486.6 717.9c1.74-69.6 2.44-139.18 1.080-209.18h-36.14v5.080q0 68.52 0 137.040c-0.002 0.133-0.003 0.291-0.003 0.448 0 7.020 1.996 13.574 5.452 19.126l-0.089-0.154c8.72 14.5 17.14 29.18 25.7 43.76 0.82 1.42 1.76 2.78 2.64 4.16zM472.78 746.46l-7.4 0.86 30.86 23.62c-2-13.3-3.7-25.48-5.58-38.48l-4.66 5.54c-1.62-2.52-3.2-4.76-4.6-7.14q-30-51.2-60-102.48c-5.28-9.040-6.52-9.54-16.46-6.46-10.96 3.4-22 6.76-32.8 10.46-4.32 1.48-6.56 0.32-8.42-3.66-8.24-17.72-16.68-35.36-25.060-53.040-0.8-1.68-1.58-3.38-2.46-5.020-3.14-5.86-5.5-6.92-11.7-4.4-11.38 4.6-22.62 9.48-34 14.24l-17.16 7.22c-13.22-26.32-26.36-52.46-39.62-78.82-3.38 9.66-2 29.68 2.28 38.22q12.5 24.44 24.96 48.94c5.080 10 6.46 10.56 16.96 6 13.28-5.66 26.52-11.38 39.8-17.060 2.26-0.96 4.58-1.8 7.22-2.82 0.88 1.7 1.68 3.16 2.4 4.66q13.52 28.38 27.040 56.74c3.4 7.12 5.3 8 12.84 5.62 11.84-3.7 23.72-7.32 35.48-11.28 4.28-1.44 6.82-0.64 9.14 3.36q28.8 49.52 57.86 98.9c1.16 2 1.98 4 3.080 6.28zM668.44 206.48h-152.44c-6.32 69.34 60 156 152.36 153.54zM659.1 351.42c-6-0.8-11.6-1.26-17.040-2.28-69.14-13.16-112.4-72-117.38-126.2-0.74-8-0.7-8.34 7.14-8.34l119.8 0.1c2.44 0 4.88 0.26 7.48 0.42zM434.3 508.48h-34v104.18c6.84-0.66 14.18-5.24 20.3 0.6 5 4.74 9 10.52 13.66 16.1zM382.76 508.6h-35.86v10.3c0 13.68-0.24 27.36 0 41.020 0.336 9.85 2.962 19.017 7.359 27.079l-0.159-0.319c5.14 10.26 10 20.66 14.96 31 1.18 2.46 2.28 5.24 5.76 3.74s8.22-0.64 8.18-6.88c-0.22-33.58-0.16-67.14-0.18-100.72-0.080-1.66-0.060-3.32-0.060-5.22zM329.22 508.56h-34.82v59.44c2-0.7 4-1.32 6-2 8.76-3.52 17.54-6.98 26.22-10.72 1.53-0.707 2.664-2.051 3.072-3.682l0.008-0.038c0.2-13.64 0.12-27.3 0-40.94-0.085-0.764-0.254-1.461-0.5-2.121l0.020 0.061zM276.66 571.44v-62.82h-32.22c10.6 21.24 21.060 42.14 31.5 63.060z" />
<glyph unicode="&#xe913;" glyph-name="temp-check" d="M116.3 384.32c11.020-9.32 37.040-6.28 47.16 5.46 45.32 52.6 90.78 105.060 135.82 157.88 4.98 5.84 8.78 6.26 15.48 3.7 60.48-22.98 121.14-45.54 181.68-68.36 17.36-6.54 31.040-7.66 47.7 7.26 104 92.98 209.38 184.26 314.34 276 2 1.7 4.1 3.2 6 4.68 0.8-0.72 1.2-0.9 1.2-1.1 0-16.58 0-33.16 0.3-49.74 0.22-18.28 11.5-29.76 29.080-29.9 18-0.18 29.74 11.38 29.82 30q0.24 58.54 0 117.060c-0.1 18.6-11.36 29.68-30 29.76q-58.54 0.2-117.060 0c-18.24 0-29.66-11.52-29.76-29.16-0.12-18 11.4-29.5 30.18-29.72 12.56-0.16 25.12 0 38.8 0-0.495-1.077-1.049-2.003-1.689-2.861l0.029 0.041q-149.42-126.54-299.060-252.88c-2.3-2-7.44-2.34-10.52-1.3-16.82 5.76-33.4 12.18-50 18.4-47.68 17.84-95.28 35.88-143.080 53.38-17.88 6.56-23.86 4.3-36.3-10q-41.82-48-83.72-95.74c-25.6-28.94-51.18-58-76.54-87.18-11-12.7-10.7-36.52 0.14-45.68zM924.8 571.76c-1.58 25.42-16.84 44.74-40.46 51.3-42.32 11.76-77.3-14.5-77.34-58.3q-0.12-117.060 0-234.1 0-58.98 0-118t0-118c0-27.86 14-48.2 38-56 42.78-14 80 12.66 80 57.48q0.12 234 0 468.18c-0.060 2.52-0.040 4.98-0.2 7.44zM748 455.72c-0.14 26.96-14.64 47.060-38.52 54.6-42.62 13.42-79.28-13.020-79.36-57.4q-0.12-87.58 0-175.12c0-59.28 0-118.58 0-177.86 0-28.22 15.36-49.26 40.26-56.16 42.74-11.78 77.62 14.52 77.62 58.96q0 113.34 0 226.72c0 42.080 0.14 84.16 0 126.26zM394 390.68c-0.14 28.26-16.44 49.58-42 55.84-42.54 10.44-76-15.54-76-59.24q0-94 0-188c0-35.32-0.16-70.66 0-106 0.18-28.76 16.46-49.7 42.82-55.88 42.4-10 75.020 15.76 75.1 59.28q0 72.36 0 144.7c0.080 49.78 0.28 99.54 0.080 149.3zM570.88 333.18c-0.38 32-22 54-54.22 56.26s-57.060-16-62.44-47.060c-1.5-8.68-1.12-17.72-1.14-26.62q-0.12-110.58 0-221.18c0-27.8 14-48.18 38-56 42.84-13.84 79.8 12.8 79.9 57.68 0 38.7 0 77.4 0 116.1v0c0 40.34 0.36 80.58-0.1 120.82zM181.7 326.3c-36.2 13.34-83.12-3.66-82.64-56.46 0.26-28.88 0-57.74 0-86.62v0c0-30.72-0.44-61.46 0.12-92.16 0.62-33.16 24.54-55.32 58.6-55.38s58.62 21.82 58.96 54.96q1 92.62 0 185.22c-0.32 23.72-12.040 41.96-35.040 50.44z" />
<glyph unicode="&#xe914;" glyph-name="user" d="M530.48 919.84c0.608-0.19 1.339-0.351 2.089-0.452l0.071-0.008c25.2-1.221 48.37-8.931 68.172-21.479l-0.572 0.339c36.44-22.74 59.060-55.3 67.78-97.4 1.668-7.879 2.623-16.932 2.623-26.207 0-0.307-0.001-0.614-0.003-0.92v0.047q0-72 0-144.16c0-24-9.26-44.2-26.68-60.64-1.337-1.109-2.182-2.77-2.182-4.628 0-0.053 0.001-0.106 0.002-0.159v0.008q0.12-58.18 0-116.34v-2.88c1.4-0.74 2.7-1.44 4-2.12 71.778-37.021 133.503-77.153 190.777-122.647l-2.357 1.807c4.68-3.74 9.4-7.46 13.76-11.58 13.435-12.653 22.739-29.557 25.757-48.556l0.063-0.484c0.32-1.82 0.5-3.68 0.74-5.52v-110.18c-0.448-1.618-0.912-2.948-1.448-4.24l0.088 0.24c-2.887-6.147-9.027-10.328-16.143-10.328-1.202 0-2.376 0.119-3.511 0.347l0.114-0.019c-8.113 1.696-14.159 8.678-14.399 17.114l-0.001 0.026c0 0.94 0 1.88 0 2.82q0 47.48 0 95c0.009 0.355 0.014 0.773 0.014 1.192 0 16.283-7.628 30.784-19.504 40.125l-0.11 0.083c-37.099 30.215-78.451 59.22-121.824 85.197l-4.796 2.663c-23.88 14.26-48.22 27.7-73.14 40-8.020 3.709-13.484 11.686-13.484 20.939 0 0.373 0.009 0.744 0.026 1.113l-0.002-0.052c0 25.66 0 51.34 0 77.020 0 19.76 0 39.54 0 59.3-0.008 0.207-0.012 0.45-0.012 0.694 0 6.748 3.449 12.691 8.681 16.161l0.072 0.045c12.143 8.299 20.009 22.081 20.009 37.7 0 0.317-0.003 0.632-0.010 0.948l0.001-0.047q0.12 71.52 0 143.060c-0.046 61.501-49.913 111.34-111.42 111.34-0.021 0-0.042 0-0.063 0h-29.657c-30.76 0-57.36-10.66-79.36-32.16-16.083-15.574-27.359-36.024-31.443-58.963l-0.097-0.657c-1.108-5.927-1.742-12.746-1.742-19.713 0-0.242 0.001-0.483 0.002-0.724v0.037q0-70.68 0-141.38c-0.014-0.421-0.021-0.916-0.021-1.412 0-16.206 8.265-30.481 20.811-38.841l0.171-0.107c4.6-3.16 7.611-8.345 7.74-14.24v-0.020c0-0.76 0-1.5 0-2.26q0-67.32 0-134.64c0.001-0.097 0.002-0.212 0.002-0.327 0-3.035-0.409-5.974-1.176-8.765l0.054 0.232c-2.018-6.634-6.683-11.926-12.734-14.739l-0.146-0.061c-16-8.34-32.12-16.52-47.88-25.36-53.706-30.095-99.754-61.126-143.061-95.464l2.201 1.684c-5.579-4.239-10.486-8.379-15.177-12.748l0.117 0.108c-8.773-8.482-14.383-20.188-14.917-33.203l-0.003-0.097c-0.14-2.14-0.18-4.3-0.18-6.46q0-46.92 0-93.88c0.009-0.215 0.014-0.466 0.014-0.72 0-5.376-2.314-10.213-5.999-13.567l-0.015-0.013c-3.093-2.758-7.195-4.443-11.69-4.443-7.932 0-14.638 5.247-16.837 12.459l-0.033 0.125c-0.359 0.983-0.736 1.807-1.169 2.597l0.049-0.097v105.12c0.5 3.040 1.040 6 1.54 9.1 3.403 22.265 14.88 41.368 31.294 54.59l0.166 0.13c24.177 19.898 51.181 39.882 79.187 58.479l3.653 2.281c32.19 21.768 70.017 44.178 109.141 64.43l6.479 3.050c1.295 0.577 2.181 1.852 2.181 3.335 0 0.235-0.022 0.465-0.065 0.688l0.004-0.023q0 43.84 0 87.68c0 9.56 0 19.1 0 28.66 0.009 0.128 0.014 0.278 0.014 0.429 0 1.962-0.888 3.716-2.284 4.883l-0.010 0.008c-14.064 12.707-23.582 30.212-25.962 49.916l-0.038 0.384c-0.395 2.931-0.62 6.318-0.62 9.758 0 0.085 0 0.17 0 0.255v-0.013q0 72 0 144.16c0.465 69.938 49.72 128.24 115.408 142.602l0.972 0.178c6.252 1.49 13.6 2.56 21.122 2.985l0.338 0.015c0.797 0.099 1.514 0.261 2.204 0.483l-0.084-0.023zM504-35.84c-0.88 0.32-1.74 0.68-2.64 0.92-2.946 0.76-5.489 2.201-7.548 4.148l0.008-0.008-44.82 40.46c-3.81 3.256-6.21 8.065-6.21 13.436 0 0.36 0.011 0.718 0.032 1.073l-0.002-0.049q0.6 15.3 1.3 30.6 0.76 17.4 1.52 34.82 1.3 29.2 2.6 58.38c0.62 14.22 1.2 28.46 1.82 42.68q1.32 30.44 2.68 60.92l1.8 42.1q1.32 30.34 2.66 60.64c0.012 0.133 0.019 0.288 0.019 0.444 0 1.197-0.414 2.298-1.107 3.166l0.008-0.010c-6.691 8.508-11.319 18.939-12.959 30.335l-0.041 0.345c-0.419 2.464-0.658 5.303-0.658 8.197 0 0.859 0.021 1.713 0.063 2.562l-0.005-0.12c0.664 9.197 8.288 16.407 17.597 16.407 0.177 0 0.353-0.003 0.529-0.008l-0.026 0.001c9.427-0.304 17.004-7.812 17.419-17.182l0.001-0.038c0.089-2.884 0.434-5.635 1.014-8.298l-0.054 0.298c3.386-12.953 14.984-22.357 28.778-22.357 4.383 0 8.543 0.949 12.288 2.653l-0.186-0.076c10.545 4.504 17.802 14.786 17.802 26.764 0 0.104-0.001 0.208-0.002 0.312v-0.016c-0.003 0.128-0.005 0.278-0.005 0.43 0 7.277 4.467 13.511 10.809 16.108l0.116 0.042c2.068 0.924 4.483 1.462 7.022 1.462 9.622 0 17.441-7.722 17.598-17.307v-0.015c0.007-0.36 0.012-0.784 0.012-1.209 0-16.071-5.995-30.741-15.87-41.898l0.058 0.067c-1.030-1.121-1.661-2.622-1.661-4.27 0-0.18 0.007-0.357 0.022-0.533l-0.002 0.023c0.92-18.72 1.76-37.44 2.62-56.14 0.44-9.54 0.84-19.1 1.28-28.64q1.32-29.34 2.66-58.66 0.92-20.5 1.84-41 1.32-29.3 2.66-58.66 0.84-18.8 1.7-37.62c0.64-14.68 1.3-29.38 1.88-44 0.021-0.387 0.034-0.841 0.034-1.297 0-1.521-0.136-3.009-0.396-4.455l0.023 0.152c-0.738-3.747-2.663-6.957-5.36-9.303l-0.020-0.017q-23.32-21.020-46.7-41.92c-1.964-1.76-4.356-3.082-6.999-3.792l-0.121-0.028c-0.98-0.28-2-0.68-2.9-1.020zM492 334.72c0-1.42-0.22-2.52-0.26-3.62-0.48-11.42-0.9-22.84-1.4-34.26-0.86-20-1.78-40-2.64-60-0.46-10.48-0.84-20.98-1.3-31.46q-1.3-30-2.64-60c-0.46-10.58-0.84-21.16-1.3-31.72q-1.060-24.72-2.14-49.4c-0.46-10.3-0.88-20.6-1.4-30.88-0.030-0.195-0.047-0.421-0.047-0.651 0-1.402 0.638-2.654 1.64-3.483l0.008-0.006c8-7.020 15.76-14.14 23.64-21.22 0.68-0.62 1.42-1.18 2.28-1.9 0.98 0.88 2 1.64 2.78 2.46l21.76 20c3.44 3.16 3.42 3.16 3.2 7.88q-1.66 35.1-3.22 70.18-1.36 31.36-2.76 62.96-1.42 31.020-2.8 62-1.32 28.5-2.64 56.98c-0.64 14-1.22 28-1.84 42.1 0 1.080-0.16 2.16-0.24 3.38-3.856-0.784-8.289-1.233-12.827-1.233-5.627 0-11.092 0.69-16.316 1.991l0.463-0.098z" />
<glyph unicode="&#xe915;" glyph-name="orgstruc" d="M361.6 633.6c-12.8-9.6-19.2-22.4-19.2-38.4v-41.6c0-12.8 9.6-19.2 19.2-19.2s19.2 9.6 19.2 19.2v41.6c0 3.2 0 6.4 3.2 6.4 35.2 28.8 73.6 48 83.2 51.2s12.8 12.8 12.8 22.4v60.8c0 6.4-3.2 12.8-9.6 16-3.2 0-3.2 3.2-3.2 6.4v60.8c0 19.2 16 35.2 35.2 35.2h12.8c19.2 0 35.2-16 35.2-35.2v-60.8c0-3.2 0-3.2-3.2-6.4s-6.4-9.6-6.4-16v-57.6c0-9.6 6.4-16 12.8-22.4 6.4-3.2 44.8-22.4 83.2-51.2 3.2-3.2 3.2-3.2 3.2-6.4v-41.6c0-12.8 9.6-19.2 19.2-19.2s19.2 9.6 19.2 19.2v41.6c0 16-6.4 28.8-19.2 38.4-32 25.6-64 44.8-80 51.2v38.4c6.4 9.6 12.8 19.2 12.8 32v60.8c0 41.6-35.2 76.8-76.8 76.8h-12.8c-41.6 0-76.8-35.2-76.8-76.8v-60.8c0-12.8 3.2-22.4 12.8-32v-38.4c-12.8-9.6-44.8-28.8-76.8-54.4zM1004.8 3.2c12.8 0 19.2 9.6 19.2 19.2v35.2c0 12.8-6.4 25.6-16 35.2-25.6 22.4-54.4 38.4-70.4 44.8v32c6.4 6.4 9.6 19.2 9.6 28.8v57.6c0 38.4-32 67.2-67.2 67.2h-12.8c-38.4 0-67.2-32-67.2-67.2v-54.4c0-9.6 3.2-22.4 9.6-28.8v-32c-16-9.6-41.6-25.6-70.4-44.8-9.6-9.6-16-22.4-16-35.2v-35.2c0-12.8 9.6-19.2 19.2-19.2s19.2 9.6 19.2 19.2v35.2c0 0 0 3.2 3.2 3.2 32 25.6 64 41.6 70.4 44.8s12.8 12.8 12.8 19.2v51.2c0 6.4-3.2 12.8-9.6 16 0 0 0 0 0 3.2v54.4c0 16 12.8 25.6 25.6 25.6h12.8c16 0 25.6-12.8 25.6-25.6v-54.4c0-3.2 0-3.2 0-3.2-6.4-3.2-9.6-9.6-9.6-16v-51.2c0-9.6 6.4-16 12.8-19.2s41.6-19.2 70.4-44.8c0 0 3.2-3.2 3.2-3.2v-35.2c3.2-12.8 12.8-22.4 25.6-22.4zM640 3.2c12.8 0 19.2 9.6 19.2 19.2v35.2c0 12.8-6.4 25.6-16 35.2-25.6 22.4-54.4 38.4-70.4 44.8v32c6.4 6.4 9.6 19.2 9.6 28.8v57.6c0 38.4-32 67.2-67.2 67.2h-12.8c-38.4 0-67.2-32-67.2-67.2v-54.4c0-9.6 3.2-22.4 9.6-28.8v-32c-16-9.6-41.6-25.6-70.4-44.8-9.6-9.6-16-22.4-16-35.2v-35.2c0-12.8 9.6-19.2 19.2-19.2s19.2 9.6 19.2 19.2v35.2c0 0 0 3.2 3.2 3.2 32 25.6 64 41.6 70.4 44.8s12.8 12.8 12.8 19.2v51.2c0 6.4-3.2 12.8-9.6 16 0 0 0 0 0 3.2v54.4c0 16 12.8 25.6 25.6 25.6h12.8c16 0 25.6-12.8 25.6-25.6v-54.4c0-3.2 0-3.2 0-3.2-6.4-3.2-9.6-9.6-9.6-16v-51.2c0-9.6 6.4-16 12.8-19.2s41.6-19.2 70.4-44.8c0 0 3.2-3.2 3.2-3.2v-35.2c6.4-12.8 16-22.4 25.6-22.4zM144 281.6h12.8c16 0 25.6-12.8 25.6-25.6v-51.2c0 0 0-3.2 0-3.2-6.4-3.2-9.6-9.6-9.6-16v-51.2c0-9.6 6.4-16 12.8-19.2s38.4-19.2 70.4-44.8c0-6.4 0-6.4 0-9.6v-35.2c0-12.8 9.6-19.2 19.2-19.2 12.8 0 19.2 9.6 19.2 19.2v35.2c0 12.8-6.4 25.6-16 35.2-25.6 22.4-54.4 38.4-67.2 44.8v32c6.4 6.4 9.6 19.2 9.6 28.8v54.4c0 38.4-32 67.2-67.2 67.2h-9.6c-38.4 0-67.2-32-67.2-67.2v-51.2c0-9.6 3.2-22.4 9.6-28.8v-32c-16-9.6-41.6-25.6-67.2-44.8-12.8-9.6-19.2-22.4-19.2-38.4v-35.2c0-12.8 9.6-19.2 19.2-19.2s19.2 9.6 19.2 19.2v35.2c0 0 0 3.2 3.2 3.2 32 25.6 64 41.6 70.4 44.8 9.6 6.4 16 16 16 22.4v51.2c0 6.4-3.2 12.8-9.6 16 0 0 0 0 0 3.2v54.4c-3.2 12.8 9.6 25.6 25.6 25.6zM873.6 348.8c12.8 0 19.2 9.6 19.2 19.2v80c0 12.8-9.6 19.2-19.2 19.2h-339.2v57.6c0 12.8-9.6 19.2-19.2 19.2-12.8 0-19.2-9.6-19.2-19.2v-57.6h-345.6c-12.8 0-22.4-9.6-22.4-19.2v-76.8c0-12.8 9.6-19.2 19.2-19.2 12.8 0 19.2 9.6 19.2 19.2v57.6h323.2v-57.6c0-12.8 9.6-19.2 19.2-19.2 12.8 0 19.2 9.6 19.2 19.2v57.6h320v-57.6c6.4-12.8 12.8-22.4 25.6-22.4z" />
<glyph unicode="&#xe916;" glyph-name="passport" d="M805.91-31.626c-4.154 0-8.339 1.413-11.761 4.3-7.722 6.498-8.716 18.039-2.218 25.75 2.595 3.076 4.269 6.665 5.012 10.662l137.34 741.514c2.333 12.577-6.006 24.704-18.583 27.037l-111.736 20.696c-9.93 1.842-16.49 11.373-14.648 21.303 1.842 9.95 11.29 16.605 21.313 14.659l111.736-20.686c32.404-6.016 53.885-37.27 47.89-69.643l-137.34-741.525c-1.873-10.16-6.372-19.692-12.995-27.55-3.62-4.3-8.81-6.519-14.010-6.519zM765.271-63.999h-648.465c-32.959 0-59.766 26.796-59.766 59.766v904.468c0 32.959 26.807 59.766 59.766 59.766h648.465c32.949 0 59.766-26.807 59.766-59.766v-904.468c0-32.969-26.817-59.766-59.766-59.766zM116.806 923.431c-12.796 0-23.197-10.411-23.197-23.197v-904.468c0-12.786 10.4-23.197 23.197-23.197h648.465c12.796 0 23.197 10.411 23.197 23.197v904.468c0 12.786-10.4 23.197-23.197 23.197zM678.752 265.141h-475.426c-10.107 0-18.29 8.182-18.29 18.29v59.535c0 51.123 56.543 86.75 107.3 86.75h60.728c10.097 0 18.29-8.182 18.29-18.29s-8.193-18.279-18.29-18.279h-60.728c-35.7 0-70.731-24.86-70.731-50.181v-41.256h438.857v49.093c0 21.376-30.5 42.344-61.576 42.344h-72.876c-10.097 0-18.29 8.172-18.29 18.279s8.193 18.29 18.29 18.29h72.876c46.425 0 98.145-32.415 98.145-78.913v-67.372c0-10.107-8.182-18.29-18.279-18.29zM605.624 548.567c-0.502 0-1.004 0.021-1.507 0.063-10.076 0.837-17.568 9.658-16.731 19.723l9.145 111.611c-0.063 62.999-48.79 115.461-108.67 115.461h-93.645c-59.891 0-108.608-52.462-108.608-116.957l9.082-110.114c0.827-10.066-6.665-18.886-16.741-19.723-10.066-0.68-18.876 6.655-19.702 16.731l-9.145 111.6c-0.063 86.164 65.060 155.043 145.114 155.043h93.645c80.054 0 145.176-68.879 145.176-153.537l-9.208-113.107c-0.785-9.553-8.779-16.793-18.206-16.793zM441.039 374.858c-52.755 0-100.635 19.524-128.090 52.232-33.273 39.676-54.775 94.838-54.775 140.531v73.703c0 31.086 0.711 49.072 15.172 57.045 12.901 7.22 25.112-0.534 35.868-7.282 14.293-9.019 35.91-22.621 71.191-22.621 28.481 0 62.748 8.705 95.874 17.118 53.53 13.613 99.724 25.321 127.661 3.631 13.236-10.306 19.953-26.409 19.953-47.9v-73.692c0-45.693-21.502-100.854-54.775-140.531-27.445-32.708-75.335-52.232-128.080-52.232zM294.952 656.872c-0.115-4.091-0.199-9.176-0.199-15.548v-73.703c0-37.029 18.572-84.072 46.216-117.031 20.278-24.159 58.615-39.164 100.070-39.164 41.445 0 79.782 15.004 100.059 39.164 27.644 32.959 46.226 80.001 46.226 117.031v73.703c0 9.605-1.967 16.019-5.838 19.012-13.811 10.756-57.579-0.408-96.198-10.191-35.313-8.967-71.809-18.248-104.883-18.248-41.152 0-68.869 14.805-85.453 24.976zM623.893 118.855h-383.998c-10.097 0-18.29 8.182-18.29 18.29s8.193 18.279 18.29 18.279h383.998c10.097 0 18.29-8.172 18.29-18.279s-8.193-18.29-18.29-18.29zM441.039 45.718h-201.144c-10.097 0-18.29 8.172-18.29 18.279s8.193 18.29 18.29 18.29h201.144c10.097 0 18.279-8.182 18.279-18.29s-8.182-18.279-18.279-18.279z" />
<glyph unicode="&#xe917;" glyph-name="right-arrow" d="M782.857 397.307l-440.304-440.29c-28.009-28.022-73.42-28.022-101.415 0-27.997 27.997-27.997 73.406 0 101.401l389.601 389.589-389.589 389.576c-27.997 28.009-27.997 73.413 0 101.41 27.997 28.009 73.406 28.009 101.415 0l440.304-440.297c13.999-14.005 20.99-32.342 20.99-50.687 0-18.354-7.005-36.704-21.001-50.703z" />
<glyph unicode="&#xe918;" glyph-name="learn-journey" d="M176 73.376c39.824 50.144 112 150.912 112 198.624 0 61.856-50.144 112-112 112s-112-50.144-112-112v0c0-47.712 72.176-148.48 112-198.624zM176 352c44.183 0 80-35.817 80-80s-35.817-80-80-80c-44.183 0-80 35.817-80 80v0c0.055 44.161 35.839 79.945 79.995 80h0.005zM224 272c0-26.51-21.49-48-48-48s-48 21.49-48 48c0 26.51 21.49 48 48 48s48-21.49 48-48zM176 0c72.752 0 112 22.704 112 32 0 6.72-24.224 24.656-80 30.176-9.6-12.288-16.896-21.136-19.648-24.432-2.955-3.526-7.362-5.753-12.288-5.753s-9.333 2.226-12.268 5.728l-0.020 0.025c-2.752 3.296-10.032 12.144-19.648 24.432-55.904-5.52-80.128-23.456-80.128-30.176 0-9.296 39.248-32 112-32zM896 784c0-26.51-21.49-48-48-48s-48 21.49-48 48c0 26.51 21.49 48 48 48s48-21.49 48-48zM848 585.376c39.808 50.144 112 150.912 112 198.624 0 61.856-50.144 112-112 112s-112-50.144-112-112v0c0-47.712 72.192-148.48 112-198.624zM848 864c44.183 0 80-35.817 80-80s-35.817-80-80-80c-44.183 0-80 35.817-80 80v0c0.055 44.161 35.839 79.945 79.995 80h0.005zM848 512c72.752 0 112 22.704 112 32 0 6.72-24.224 24.656-80 30.176-9.6-12.288-16.896-21.136-19.648-24.432-2.955-3.526-7.362-5.753-12.288-5.753s-9.333 2.226-12.268 5.728l-0.020 0.025c-2.752 3.296-10.032 12.144-19.648 24.432-55.84-5.52-80-23.456-80-30.176-0.128-9.296 39.12-32 111.872-32zM816 64h-464c-8.837 0-16 7.163-16 16s7.163 16 16 16v0h464c79.529 0 144 64.471 144 144s-64.471 144-144 144v0h-416c-97.202 0-176 78.798-176 176s78.798 176 176 176v0h272c8.837 0 16-7.163 16-16s-7.163-16-16-16v0h-272c-79.529 0-144-64.471-144-144s64.471-144 144-144v0h416c97.202 0 176-78.798 176-176s-78.798-176-176-176v0z" />
<glyph unicode="&#xe919;" glyph-name="minus" d="M903.534 569.905h-783.067c-66.243 0-120.466-55.637-120.466-121.905s54.223-121.905 120.466-121.905h783.067c66.243 0 120.466 55.637 120.466 121.905s-54.223 121.905-120.466 121.905z" />
<glyph unicode="&#xe91a;" glyph-name="notification" d="M1003.535 64.444h-983.069l0.107 21.514c0.45 87.021 61.439 161.583 144.692 180.614v250.359c0 191.189 155.525 346.735 346.714 346.735 191.211 0 346.757-155.546 346.757-346.735v-250.359c83.253-19.053 144.221-93.593 144.692-180.614l0.107-21.514zM65.121 107.259h893.758c-9.805 62.253-60.026 112.196-124.163 120.095l-18.796 2.291v287.287c0 167.577-136.344 303.92-303.942 303.92-167.577 0-303.899-136.344-303.899-303.92v-287.265l-18.796-2.291c-64.158-7.899-114.358-57.843-124.163-120.117zM452.231 831.813h-42.815v25.603c0 56.58 46.004 102.584 102.584 102.584 56.558 0 102.563-46.004 102.563-102.584v-25.175h-42.815v25.175c0 32.946-26.802 59.769-59.748 59.769s-59.769-26.823-59.769-59.769v-25.603zM511.7-64c-84.366 0-157.879 59.919-174.77 142.487l41.937 8.563c12.844-62.724 68.696-108.257 132.833-108.257 65.464 0 121.53 46.647 133.325 110.89l42.108-7.728c-15.52-84.581-89.29-145.955-175.433-145.955zM186.672 270.019h78.822v-42.815h-78.822v42.815zM388.908 270.019h448.42v-42.815h-448.42v42.815z" />
<glyph unicode="&#xe91b;" glyph-name="plus" d="M930.739 541.464h-325.568v325.297c0 51.491-41.545 93.239-93.036 93.239s-93.013-41.748-93.013-93.261v-325.5h-325.726c-51.491 0-93.351-41.748-93.329-93.261-0.023-25.734 10.375-49.326 27.223-66.174 16.87-16.893 40.146-27.561 65.858-27.561h325.974v-325.049c0-25.757 10.217-49.078 27.087-65.903 16.87-16.87 40.079-27.313 65.835-27.313 51.468 0 93.126 41.748 93.126 93.216v325.072h325.568c51.491 0 93.239 42.108 93.216 93.599-0.023 51.468-41.77 93.599-93.216 93.599z" />
<glyph unicode="&#xe91c;" glyph-name="search" d="M991.284 27.298l-243.714 253.474c62.663 74.491 96.997 168.216 96.997 265.788 0 227.967-185.473 413.44-413.44 413.44s-413.44-185.473-413.44-413.44 185.473-413.44 413.44-413.44c85.582 0 167.137 25.813 236.865 74.815l245.565-255.398c10.264-10.66 24.069-16.538 38.863-16.538 14.003 0 27.287 5.339 37.371 15.046 21.427 20.618 22.11 54.808 1.492 76.253zM431.128 852.146c168.504 0 305.586-137.082 305.586-305.586s-137.082-305.586-305.586-305.586-305.586 137.082-305.586 305.586 137.082 305.586 305.586 305.586z" />
<glyph unicode="&#xe91d;" glyph-name="right" d="M879.393 468.078l-707.064 487.631c-7.485 5.145-17.189 5.681-25.186 1.512-8.022-4.218-13.044-12.508-13.044-21.578v-975.261c0-9.070 5.023-17.384 13.044-21.602 3.56-1.853 7.461-2.779 11.337-2.779 4.852 0 9.679 1.463 13.849 4.316l707.064 487.631c6.607 4.559 10.533 12.044 10.533 20.066s-3.95 15.507-10.533 20.066z" />
<glyph unicode="&#xe91e;" glyph-name="sorting-arrow" d="M186.186 541.095h651.626c12.606 0 23.519 4.603 32.727 13.816 9.203 9.211 13.824 20.118 13.824 32.725s-4.618 23.509-13.824 32.733l-325.814 325.814c-9.206 9.201-20.111 13.816-32.725 13.816s-23.519-4.616-32.733-13.816l-325.814-325.814c-9.213-9.213-13.816-20.126-13.816-32.733 0-12.604 4.603-23.514 13.816-32.725 9.224-9.213 20.129-13.816 32.733-13.816zM837.812 354.897h-651.626c-12.614 0-23.519-4.605-32.733-13.809-9.213-9.213-13.816-20.118-13.816-32.725s4.603-23.519 13.816-32.727l325.814-325.809c9.224-9.213 20.129-13.827 32.733-13.827s23.519 4.613 32.725 13.827l325.814 325.812c9.203 9.206 13.824 20.118 13.824 32.727 0 12.604-4.618 23.509-13.824 32.725-9.206 9.211-20.121 13.806-32.727 13.806z" />
<glyph unicode="&#xe91f;" glyph-name="upload" d="M761.132 726.27l-222.699 222.699c-7.076 7.076-16.65 11.031-26.433 11.031-9.99 0-19.564-3.954-26.433-11.031l-222.699-222.699c-14.569-14.569-14.569-38.296 0-53.073 14.569-14.569 38.296-14.569 53.073 0l158.595 158.803v-646.452c0-20.605 16.859-37.463 37.463-37.463s37.463 16.859 37.463 37.463v646.452l158.803-158.803c7.285-7.285 16.859-11.031 26.433-11.031s19.148 3.746 26.433 11.031c14.569 14.569 14.569 38.296 0 53.073zM915.772 259.85c-20.605 0-37.463-16.859-37.463-37.463v-211.46h-732.618v211.46c0 20.605-16.859 37.463-37.463 37.463s-37.463-16.859-37.463-37.463v-248.924c0-20.605 16.859-37.463 37.463-37.463h807.545c20.813 0 37.463 16.859 37.463 37.463v248.924c0 20.605-16.859 37.463-37.463 37.463z" />
<glyph unicode="&#xe920;" glyph-name="tempcheck" d="M201 96h622c66.168 0 120 53.832 120 120v624c0 66.168-53.832 120-120 120h-622c-66.168 0-120-53.832-120-120v-784c0-66.168 53.832-120 120-120h622c66.168 0 120 53.832 120 120v0.1c-33.45-25.166-75.012-40.1-120-40.1h-622c-22.056 0-40 17.944-40 40s17.944 40 40 40zM161 840c0 22.056 17.944 40 40 40h622c22.056 0 40-17.944 40-40v-624c0-22.056-17.944-40-40-40h-622c-14.018 0-27.484-2.416-40-6.854v670.854zM445 622.84h-80c0 41.036 17.588 80.314 48.256 107.768 31.070 27.816 72.866 41.112 114.68 36.468 66.986-7.434 120.926-61.234 128.258-127.928 6.686-60.828-28.986-104.476-56.4-132.016-7.056-7.088-13.568-13.298-19.314-18.78-26.138-24.928-29.468-29.12-29.468-46.344v-2.008h-80v2.010c0 52.494 25.144 76.472 54.258 104.238 5.656 5.394 11.506 10.972 17.826 17.322 25.834 25.954 35.876 45.942 33.58 66.838-3.276 29.78-27.482 53.818-57.562 57.156-19.492 2.156-38.148-3.716-52.498-16.564-13.94-12.476-21.616-29.58-21.616-48.16zM471 380h80v-80h-80v80z" />
<glyph unicode="&#xe921;" glyph-name="arrow-left" d="M245.060 411.451l460.488-460.335c20.206-20.155 52.943-20.155 73.2 0 20.206 20.155 20.206 52.892 0 73.047l-423.963 423.81 423.912 423.81c20.206 20.155 20.206 52.892 0 73.098-20.206 20.155-52.994 20.155-73.2 0l-460.488-460.331c-19.896-19.947-19.896-53.198 0.051-73.098z" />
<glyph unicode="&#xe922;" glyph-name="check-box" d="M987.428 960h-950.856c-20.215 0-36.572-16.357-36.572-36.572v-950.856c0-20.215 16.357-36.572 36.572-36.572h950.856c20.215 0 36.572 16.357 36.572 36.572v950.856c0 20.215-16.357 36.572-36.572 36.572zM950.856 9.144h-877.713v877.713h877.715v-877.713z" />
<glyph unicode="&#xe923;" glyph-name="logout" d="M865.085 494.545h-539.26c-25.706 0-46.545-20.84-46.545-46.545s20.84-46.545 46.545-46.545h539.26l-60.18-60.177c-18.178-18.174-18.178-47.647 0-65.825 18.171-18.178 47.644-18.178 65.825 0l139.627 139.627c1.080 1.077 2.098 2.203 3.066 3.382 0.236 0.289 0.438 0.599 0.667 0.894 0.711 0.903 1.409 1.809 2.048 2.765 0.186 0.279 0.338 0.574 0.521 0.856 0.639 0.999 1.266 2.008 1.831 3.060 0.109 0.208 0.199 0.428 0.307 0.636 0.586 1.139 1.151 2.293 1.645 3.485 0.062 0.146 0.106 0.301 0.164 0.45 0.506 1.254 0.974 2.523 1.372 3.829 0.053 0.164 0.081 0.335 0.127 0.503 0.375 1.282 0.72 2.576 0.984 3.901 0.078 0.394 0.112 0.801 0.183 1.198 0.192 1.098 0.385 2.197 0.493 3.317 0.158 1.536 0.236 3.088 0.236 4.645s-0.078 3.109-0.236 4.648c-0.109 1.136-0.307 2.243-0.496 3.351-0.068 0.385-0.102 0.779-0.18 1.161-0.267 1.337-0.608 2.644-0.987 3.938-0.047 0.152-0.074 0.313-0.121 0.465-0.4 1.313-0.869 2.594-1.381 3.86-0.056 0.137-0.096 0.282-0.155 0.419-0.496 1.201-1.064 2.361-1.657 3.506-0.102 0.202-0.189 0.413-0.295 0.614-0.571 1.058-1.201 2.076-1.849 3.084-0.174 0.273-0.323 0.562-0.503 0.829-0.642 0.959-1.347 1.871-2.054 2.777-0.227 0.292-0.428 0.599-0.661 0.884-0.971 1.176-1.989 2.306-3.066 3.382l-139.627 139.627c-9.089 9.092-21.001 13.635-32.914 13.635s-23.825-4.543-32.911-13.635c-18.178-18.178-18.178-47.647 0-65.825l60.177-60.177zM380.745 67.255c127.050 0 245.257 63.029 316.208 168.597 14.336 21.333 8.664 50.254-12.67 64.593-21.336 14.336-50.254 8.67-64.596-12.67-53.623-79.794-142.947-127.432-238.943-127.432-158.611 0.003-287.654 129.043-287.654 287.657s129.043 287.654 287.654 287.654c95.713 0 184.891-47.424 238.555-126.855 14.395-21.302 43.321-26.9 64.627-12.511 21.299 14.392 26.903 43.325 12.511 64.624-71 105.093-189.015 167.834-315.693 167.834-209.942 0-380.745-170.8-380.745-380.745s170.803-380.745 380.745-380.745z" />
<glyph unicode="&#xe924;" glyph-name="arrow-right" d="M778.94 484.549l-460.488 460.335c-20.206 20.155-52.943 20.155-73.2 0-20.206-20.155-20.206-52.892 0-73.047l423.963-423.81-423.912-423.81c-20.206-20.155-20.206-52.892 0-73.098 20.206-20.155 52.994-20.155 73.2 0l460.488 460.331c19.896 19.947 19.896 53.198-0.051 73.098z" />
<glyph unicode="&#xe925;" glyph-name="comment" d="M672 416h-320c-17.664 0-32-14.336-32-32s14.336-32 32-32h320c17.664 0 32 14.336 32 32s-14.336 32-32 32zM736 608h-448c-17.664 0-32-14.336-32-32s14.336-32 32-32h448c17.664 0 32 14.336 32 32s-14.336 32-32 32zM512 960c-282.751 0-512-200.575-512-448 0-141.409 75.040-267.296 192-349.408v-226.592l224.288 136.097c31.041-5.122 62.976-8.097 95.712-8.097 282.785 0 512 200.575 512 448s-229.215 448-512 448zM512 128c-37.376 0-73.472 4.352-108.161 11.744l-150.657-90.559 2.016 148.415c-115.486 69.471-191.199 184.287-191.199 314.4 0 212.063 200.575 384 448 384s448-171.937 448-384-200.575-384-448-384z" />
<glyph unicode="&#xe926;" glyph-name="destination" d="M161.103 52.897c54.534 70.888 158.897 220.69 158.897 289.172 0 87.759-71.138 158.897-158.897 158.897s-158.897-71.138-158.897-158.897c0-68.534 104.362-218.31 158.897-289.172zM161.103 430.345c39 0 70.621-31.621 70.621-70.621s-31.621-70.621-70.621-70.621-70.621 31.621-70.621 70.621 31.621 70.621 70.621 70.621zM884.966 669.767c38.526 47.371 105.931 139.474 105.931 184.302 0 58.5-47.431 105.931-105.931 105.931s-105.931-47.431-105.931-105.931c0-44.793 67.388-136.931 105.931-184.302zM884.966 924.69c29.25 0 52.966-23.716 52.966-52.966s-23.716-52.966-52.966-52.966-52.966 23.716-52.966 52.966 23.716 52.966 52.966 52.966zM867.31 553.931h17.655c9.75 0 17.655 7.905 17.655 17.655s-7.905 17.655-17.655 17.655h-17.655c-9.75 0-17.655-7.905-17.655-17.655s7.905-17.655 17.655-17.655zM637.793 448h35.698c9.75 0 17.655 7.905 17.655 17.655s-7.905 17.655-17.655 17.655h-35.983c-4.664-0.009-9.138-1.879-12.422-5.19s-5.121-7.802-5.086-12.466c0.060-9.776 8.017-17.664 17.793-17.655zM835.724 465.655c0-9.75 7.905-17.655 17.655-17.655h35.966c9.75 0 17.655 7.905 17.655 17.655s-7.905 17.655-17.655 17.655h-35.966c-9.75 0-17.655-7.905-17.655-17.655zM759.388 553.931h35.974c9.75 0 17.655 7.905 17.655 17.655s-7.905 17.655-17.655 17.655h-35.974c-9.759 0-17.655-7.905-17.655-17.655s7.897-17.655 17.655-17.655zM288.483-28.69h-35.983c-9.75 0-17.655-7.905-17.655-17.655s7.905-17.655 17.655-17.655h35.983c9.75 0 17.655 7.905 17.655 17.655s-7.905 17.655-17.655 17.655zM585.94 490.017c1.233 0 2.457 0.129 3.655 0.388 9.534 2.009 15.638 11.353 13.647 20.888-0.5 2.414-0.75 4.862-0.759 7.328-0.009 5.586 1.31 11.086 3.845 16.069 4.422 8.69 0.966 19.319-7.733 23.741-8.69 4.422-19.319 0.966-23.741-7.733-7.319-14.371-9.491-30.828-6.164-46.612 1.698-8.172 8.897-14.052 17.25-14.069zM745.491 448h35.983c9.75 0 17.655 7.905 17.655 17.655s-7.905 17.655-17.655 17.655h-35.983c-9.75 0-17.655-7.905-17.655-17.655s7.905-17.655 17.655-17.655zM651.457 553.931h35.983c9.75 0 17.655 7.905 17.655 17.655s-7.905 17.655-17.655 17.655h-35.983c-9.75 0-17.655-7.905-17.655-17.655s7.905-17.655 17.655-17.655zM476.991 247.138c1.397-0.362 2.845-0.534 4.284-0.534 8.103 0.017 15.155 5.534 17.112 13.388 2.284 9.078 6.586 17.526 12.586 24.716 4.241 4.81 5.534 11.534 3.397 17.569-2.138 6.043-7.388 10.448-13.707 11.517-6.31 1.060-12.716-1.379-16.716-6.379-9.457-11.284-16.233-24.56-19.81-38.845-1.147-4.543-0.431-9.362 1.983-13.379 2.405-4.026 6.319-6.922 10.871-8.052zM825.784-27.948c-3.793-0.5-7.612-0.75-11.44-0.741h-22.224c-9.759 0-17.655-7.905-17.655-17.655s7.897-17.655 17.655-17.655h22.224c5.31 0 10.621 0.345 15.888 1.026 9.672 1.25 16.5 10.103 15.259 19.776-1.25 9.672-10.103 16.5-19.776 15.25zM850.379 177.879c-11.681 3.534-23.828 5.319-36.034 5.293h-4.629c-9.75 0-17.655-7.905-17.655-17.655s7.905-17.655 17.655-17.655h4.629c8.724 0 17.405-1.284 25.759-3.81 1.664-0.517 3.397-0.776 5.138-0.776 8.75-0.009 16.19 6.397 17.483 15.052 1.284 8.664-3.966 16.957-12.345 19.491zM812.724 306.759c9.75 0 17.655 7.905 17.655 17.655s-7.905 17.655-17.655 17.655h-35.966c-9.75 0-17.655-7.905-17.655-17.655s7.905-17.655 17.655-17.655zM918.224 32.241c-8.879 4-19.328 0.052-23.336-8.828-4.112-9.129-9.759-17.491-16.681-24.724-4.534-4.526-6.259-11.147-4.509-17.302 1.75-6.164 6.698-10.897 12.922-12.362 6.233-1.474 12.776 0.543 17.095 5.267 9.707 10.121 17.621 21.836 23.379 34.621 3.983 8.888 0.017 19.328-8.871 23.328zM1010.69 391.931c-4.491 1.328-9.328 0.819-13.448-1.422-4.112-2.241-7.172-6.026-8.5-10.517-2.595-8.655-7.336-16.517-13.784-22.845-6.974-6.828-7.095-18.009-0.267-24.983s18.009-7.086 24.983-0.267c10.759 10.543 18.655 23.647 22.948 38.086 1.336 4.491 0.819 9.328-1.414 13.448-2.241 4.112-6.026 7.172-10.517 8.5zM990.543 424.517c6.974-0.009 13.293 4.095 16.138 10.457 2.836 6.362 1.672 13.802-2.983 18.991-10.078 11.207-22.836 19.664-37.078 24.578-9.224 3.172-19.267-1.741-22.44-10.966s1.741-19.267 10.966-22.44c8.552-2.94 16.207-8.017 22.241-14.759 3.353-3.733 8.138-5.862 13.155-5.862zM737.776 183.172h-35.966c-9.75 0-17.655-7.905-17.655-17.655s7.905-17.655 17.655-17.655h35.966c9.75 0 17.655 7.905 17.655 17.655s-7.905 17.655-17.655 17.655zM920.647 342.069h-35.983c-9.75 0-17.655-7.905-17.655-17.655s7.905-17.655 17.655-17.655h35.983c9.75 0 17.655 7.905 17.655 17.655s-7.905 17.655-17.655 17.655zM396.397-28.69h-35.966c-9.75 0-17.655-7.905-17.655-17.655s7.905-17.655 17.655-17.655h35.966c9.75 0 17.655 7.905 17.655 17.655s-7.905 17.655-17.655 17.655zM916.621 128.974c-5.509 8.060-16.509 10.129-24.578 4.621-8.060-5.509-10.129-16.509-4.621-24.578 5.638-8.259 9.819-17.422 12.353-27.095 1.379-6.319 6.103-11.379 12.319-13.19 6.207-1.81 12.905-0.078 17.466 4.517 4.552 4.586 6.233 11.302 4.379 17.5-3.534 13.638-9.388 26.569-17.319 38.224zM531.017 189.509c-8.388 4.181-15.724 10.181-21.491 17.569-5.983 7.707-17.078 9.095-24.776 3.112-7.707-5.974-9.095-17.069-3.121-24.776 9.043-11.603 20.578-21.026 33.759-27.56 8.698-4.060 19.052-0.422 23.302 8.19 4.25 8.603 0.836 19.034-7.672 23.466zM504.319-28.69h-36.017c-9.75 0-17.655-7.905-17.655-17.655s7.905-17.655 17.655-17.655h36.017c9.75 0 17.655 7.905 17.655 17.655s-7.905 17.655-17.655 17.655zM720.172-28.69h-35.966c-9.75 0-17.655-7.905-17.655-17.655s7.905-17.655 17.655-17.655h35.966c9.75 0 17.655 7.905 17.655 17.655s-7.905 17.655-17.655 17.655zM596.888 306.759c9.75 0 17.655 7.905 17.655 17.655s-7.905 17.655-17.655 17.655h-35.966c-9.75 0-17.655-7.905-17.655-17.655s7.905-17.655 17.655-17.655zM704.879 306.759c9.75 0 17.655 7.905 17.655 17.655s-7.905 17.655-17.655 17.655h-36.052c-9.75 0-17.655-7.905-17.655-17.655s7.905-17.655 17.655-17.655zM629.862 183.172h-35.974c-9.75 0-17.655-7.905-17.655-17.655s7.905-17.655 17.655-17.655h35.974c9.759 0 17.655 7.905 17.655 17.655s-7.897 17.655-17.655 17.655zM612.267-28.69h-35.983c-9.75 0-17.655-7.905-17.655-17.655s7.905-17.655 17.655-17.655h35.983c9.75 0 17.655 7.905 17.655 17.655s-7.905 17.655-17.655 17.655zM178.759-28.69h-17.655c-9.75 0-17.655-7.905-17.655-17.655s7.905-17.655 17.655-17.655h17.655c9.75 0 17.655 7.905 17.655 17.655s-7.905 17.655-17.655 17.655z" />
<glyph unicode="&#xe927;" glyph-name="info" d="M512 960c-282.317 0-512-229.686-512-512.003s229.683-511.997 512-511.997 512 229.68 512 511.997c0 282.317-229.683 512.003-512 512.003zM512 29.091c-230.99 0-418.909 187.92-418.909 418.906s187.92 418.912 418.909 418.912 418.909-187.926 418.909-418.912c0-230.986-187.923-418.906-418.909-418.906zM511.994 742.788c-34.214 0-62.048-27.853-62.048-62.089 0-34.205 27.834-62.033 62.048-62.033s62.048 27.828 62.048 62.033c0 34.236-27.834 62.089-62.048 62.089zM512 525.576c-25.706 0-46.545-20.84-46.545-46.545v-279.273c0-25.706 20.84-46.545 46.545-46.545s46.545 20.84 46.545 46.545v279.273c0 25.706-20.84 46.545-46.545 46.545z" />
<glyph unicode="&#xe928;" glyph-name="article" d="M892.833 960h-22.022c-9.124 0-16.516-7.395-16.516-16.516s7.393-16.516 16.516-16.516h5.505v-957.935h-5.505c-9.124 0-16.516-7.395-16.516-16.516s7.393-16.516 16.516-16.516h22.022c9.124 0 16.516 7.395 16.516 16.516v990.968c0 9.121-7.395 16.516-16.516 16.516zM694.64 651.699h-453.366c-9.124 0-16.516-7.395-16.516-16.516s7.393-16.516 16.516-16.516h453.363c9.124 0 16.516 7.395 16.516 16.516s-7.393 16.516-16.514 16.516zM694.64 387.441h-453.366c-9.124 0-16.516-7.395-16.516-16.516s7.393-16.516 16.516-16.516h453.363c9.124 0 16.516 7.395 16.516 16.516s-7.393 16.516-16.514 16.516zM694.64 299.355h-182.64c-9.124 0-16.516-7.395-16.516-16.516s7.393-16.516 16.516-16.516h182.64c9.124 0 16.516 7.395 16.516 16.516s-7.395 16.516-16.516 16.516zM804.747 960h-519.43c-0.553 0-1.103-0.029-1.649-0.084-0.405-0.042-0.804-0.11-1.2-0.181-0.132-0.024-0.269-0.035-0.401-0.062-0.473-0.095-0.936-0.216-1.392-0.35-0.055-0.018-0.115-0.026-0.17-0.044-0.467-0.141-0.923-0.311-1.372-0.491-0.048-0.020-0.097-0.033-0.145-0.053-0.429-0.178-0.843-0.379-1.253-0.592-0.068-0.035-0.141-0.064-0.207-0.099-0.381-0.205-0.747-0.432-1.11-0.663-0.092-0.059-0.189-0.108-0.28-0.17-0.339-0.227-0.661-0.476-0.982-0.727-0.106-0.084-0.216-0.154-0.319-0.24-0.381-0.313-0.744-0.645-1.097-0.993-0.033-0.033-0.068-0.059-0.101-0.092l-154.151-154.151c-0.040-0.040-0.073-0.086-0.112-0.126-0.337-0.344-0.663-0.698-0.969-1.070-0.097-0.119-0.181-0.247-0.275-0.368-0.238-0.304-0.473-0.61-0.689-0.932-0.073-0.108-0.132-0.222-0.203-0.333-0.22-0.346-0.438-0.694-0.632-1.057-0.044-0.081-0.077-0.165-0.119-0.247-0.205-0.399-0.401-0.799-0.575-1.216-0.024-0.057-0.042-0.119-0.066-0.178-0.176-0.44-0.341-0.885-0.48-1.343-0.018-0.057-0.029-0.117-0.046-0.176-0.134-0.456-0.255-0.916-0.348-1.387-0.026-0.13-0.037-0.262-0.059-0.392-0.070-0.401-0.141-0.799-0.181-1.209-0.055-0.546-0.084-1.097-0.084-1.649v-836.817c0-9.121 7.393-16.516 16.516-16.516h673.578c9.124 0 16.516 7.395 16.516 16.516v990.974c0.002 9.121-7.393 16.516-16.514 16.516zM268.801 903.612v-97.762h-97.76l97.76 97.762zM788.231-30.968h-640.548v803.785h137.634c9.124 0 16.516 7.395 16.516 16.516v137.634h486.396v-957.935zM351.382 772.817h343.256c9.124 0 16.516 7.395 16.516 16.516s-7.393 16.516-16.516 16.516h-343.256c-9.124 0-16.516-7.395-16.516-16.516s7.395-16.516 16.516-16.516zM694.64 563.613h-182.64c-9.124 0-16.516-7.395-16.516-16.516s7.393-16.516 16.516-16.516h182.64c9.124 0 16.516 7.395 16.516 16.516s-7.395 16.516-16.516 16.516zM694.64 475.527h-182.64c-9.124 0-16.516-7.395-16.516-16.516s7.393-16.516 16.516-16.516h182.64c9.124 0 16.516 7.395 16.516 16.516s-7.395 16.516-16.516 16.516zM423.914 266.323c9.124 0 16.516 7.395 16.516 16.516s-7.393 16.516-16.516 16.516h-182.64c-9.124 0-16.516-7.395-16.516-16.516v-176.172c0-9.121 7.393-16.516 16.516-16.516h182.64c9.124 0 16.516 7.395 16.516 16.516v110.108c0 9.121-7.393 16.516-16.516 16.516s-16.516-7.395-16.516-16.516v-93.591h-149.608v143.14h166.124zM241.274 442.495h182.64c9.124 0 16.516 7.395 16.516 16.516s-7.393 16.516-16.516 16.516h-182.64c-9.124 0-16.516-7.395-16.516-16.516s7.395-16.516 16.516-16.516zM584.532 123.183h-72.532c-9.124 0-16.516-7.395-16.516-16.516s7.393-16.516 16.516-16.516h72.532c9.124 0 16.516 7.395 16.516 16.516s-7.395 16.516-16.516 16.516zM694.64 211.269h-182.64c-9.124 0-16.516-7.395-16.516-16.516s7.393-16.516 16.516-16.516h182.64c9.124 0 16.516 7.395 16.516 16.516s-7.395 16.516-16.516 16.516zM241.274 530.581h182.64c9.124 0 16.516 7.395 16.516 16.516s-7.393 16.516-16.516 16.516h-182.64c-9.124 0-16.516-7.395-16.516-16.516s7.395-16.516 16.516-16.516z" />
<glyph unicode="&#xe929;" glyph-name="assessment" d="M988.16 637.952l-338.637-336.794-247.296-91.546 92.979 244.941 338.637 336.794c34.099 33.894 89.293 33.894 123.392 0l30.822-30.72c34.202-33.894 34.202-88.781 0.102-122.675zM477.184 284.16l148.378 54.989 8.294 8.294-92.57 92.058-8.397-8.294-55.706-147.046zM572.211 470.118l92.57-92.058 230.707 229.478-92.57 92.058-230.707-229.478zM957.542 730.624l-30.822 30.72c-16.998 16.896-44.646 16.896-61.645 0l-31.232-31.027 92.57-92.058 31.232 31.027c16.896 16.896 16.896 44.339-0.102 61.338zM162.918 187.699v43.418h214.426l-16.486-43.418h-197.939zM410.317 317.85h-247.398v43.418h263.885l-16.486-43.418zM162.918 621.568h218.112v-43.418h-218.112v43.418zM381.030 448h-218.112v43.418h218.112v-43.418zM642.765 231.117v-43.418h-212.070l117.248 43.418h94.822zM533.709 867.43v-159.232c0-23.962 19.558-43.418 43.622-43.418h67.686l-43.622-43.418h-24.064c-48.23 0-87.245 38.81-87.245 86.733v195.379h-392.602c-24.064 0-43.622-19.456-43.622-43.418v-824.218c0-23.962 19.558-43.418 43.622-43.418h610.714c24.064 0 43.622 19.456 43.622 43.418v305.869l43.622 43.418v-349.184c0-47.923-39.014-86.733-87.245-86.733h-610.714c-48.23 0-87.245 38.81-87.245 86.733v824.218c0 47.923 39.014 86.733 87.245 86.733 0 0 167.526 0 327.168 0 3.891 0 7.782 0 11.674 0 7.68 0 15.053 0 22.528 0h61.030l196.813-210.739-30.618-30.31-152.371 161.587z" />
<glyph unicode="&#xe92a;" glyph-name="book" d="M890.279 693.823h-623.68c-57.791 0-105.036 47.034-105.036 105.036 0 57.791 47.034 105.036 105.036 105.036h623.891c15.608 0 28.052 12.655 28.052 28.052 0 15.608-12.655 28.052-28.052 28.052h-623.891c-88.796 0-161.14-72.344-161.14-161.14v-701.719c0-88.796 72.344-161.14 161.14-161.14h623.891c15.608 0 28.052 12.655 28.052 28.052v701.719c-0.211 15.397-12.655 28.052-28.263 28.052zM862.227-7.896h-595.628c-57.791 0-105.036 47.034-105.036 105.036v579.388c28.263-24.255 64.962-39.020 105.036-39.020h595.628v-645.405zM275.457 824.381c-15.608 0-28.052-12.655-28.052-28.052s12.655-28.052 28.052-28.052h526.87c15.608 0 28.052 12.655 28.052 28.052s-12.655 28.052-28.052 28.052h-526.87zM374.166 114.857c3.164-1.055 6.327-1.687 9.491-1.687 11.6 0 22.357 7.171 26.365 18.561l34.168 95.545h131.612c1.055 0 2.32 0 3.375 0.211l34.168-95.756c4.007-11.389 14.975-18.561 26.365-18.561 3.164 0 6.327 0.633 9.491 1.687 14.553 5.273 22.146 21.303 16.873 35.856l-127.815 358.347c-0.211 0.844-0.633 1.687-1.055 2.531-0.211 0.422-0.422 0.844-0.633 1.265s-0.422 0.844-0.633 1.265c-0.211 0.422-0.633 0.844-0.844 1.476-0.211 0.211-0.422 0.633-0.633 0.844-0.211 0.422-0.633 0.844-1.055 1.265-0.211 0.211-0.422 0.633-0.844 0.844-0.211 0.422-0.633 0.633-1.055 1.055s-0.633 0.633-1.055 1.055c-0.211 0.211-0.633 0.422-0.844 0.844-0.422 0.422-0.844 0.633-1.265 1.055-0.211 0.211-0.633 0.422-0.844 0.633-0.422 0.211-0.844 0.633-1.265 0.844s-0.844 0.422-1.265 0.633-0.844 0.422-1.265 0.633c-0.844 0.422-1.687 0.844-2.531 1.055v0h-0.211c-0.844 0.211-1.687 0.422-2.531 0.633-0.422 0-0.633 0.211-1.055 0.211-0.633 0.211-1.055 0.211-1.687 0.422-0.422 0-0.844 0-1.265 0.211-0.422 0-1.055 0.211-1.476 0.211s-0.844 0-1.265 0c-0.422 0-0.844 0-1.476 0-0.422 0-1.055 0-1.476-0.211-0.422 0-0.844 0-1.265-0.211-0.633 0-1.055-0.211-1.687-0.422-0.422 0-0.633-0.211-1.055-0.211-0.844-0.211-1.687-0.422-2.32-0.633h-0.211c-0.844-0.211-1.687-0.633-2.531-1.055-0.422-0.211-0.844-0.422-1.265-0.633s-0.844-0.422-1.265-0.633c-0.422-0.211-0.844-0.633-1.476-0.844-0.211-0.211-0.633-0.422-0.844-0.633-0.422-0.422-0.844-0.633-1.265-1.055-0.211-0.211-0.633-0.422-0.844-0.844-0.422-0.422-0.633-0.633-1.055-1.055s-0.633-0.633-1.055-1.055c-0.211-0.211-0.422-0.633-0.844-0.844-0.422-0.422-0.633-0.844-1.055-1.265-0.211-0.211-0.422-0.633-0.633-0.844-0.211-0.422-0.633-0.844-0.844-1.265s-0.422-0.844-0.633-1.265c-0.211-0.422-0.422-0.844-0.633-1.265-0.422-0.844-0.844-1.687-1.055-2.531v0l-128.237-358.347c-4.64-14.764 2.953-30.794 17.506-36.067zM511.895 416.257l47.456-132.877h-95.123l47.667 132.877z" />
<glyph unicode="&#xe92b;" glyph-name="calendar" d="M83.349 22.524h856.509c18.257 0 32.546 14.288 32.546 32.546v726.326c0 18.257-14.288 32.546-32.546 32.546h-161.141v27.783c0 18.257-14.288 32.546-32.546 32.546s-32.546-14.288-32.546-32.546v-27.783h-398.487v27.783c0 18.257-14.288 32.546-32.546 32.546s-32.546-14.288-32.546-32.546v-27.783h-166.698c-18.257 0-32.546-14.288-32.546-32.546v-727.119c0-17.464 15.082-31.752 32.546-31.752zM115.895 748.85h134.152v-17.464c0-18.257 14.288-32.546 32.546-32.546s32.546 14.288 32.546 32.546v17.464h398.487v-17.464c0-18.257 14.288-32.546 32.546-32.546s32.546 14.288 32.546 32.546v17.464h129.389v-84.143h-792.211v84.143zM115.895 599.616h791.417v-512.794h-791.417v512.794zM746.171 450.381h-468.341c-18.257 0-32.546-14.288-32.546-32.546s14.288-32.546 32.546-32.546h468.341c18.257 0 32.546 14.288 32.546 32.546s-14.288 32.546-32.546 32.546zM512 293.209h-234.171c-18.257 0-32.546-14.288-32.546-32.546s14.288-32.546 32.546-32.546h234.171c18.257 0 32.546 14.288 32.546 32.546s-14.288 32.546-32.546 32.546z" />
<glyph unicode="&#xe92c;" glyph-name="cancel" d="M874.020 810.020c-96.754 96.754-225.185 149.98-362.020 149.98s-265.266-53.226-362.020-149.98-149.98-225.185-149.98-362.020 53.226-265.266 149.98-362.020 225.185-149.98 362.020-149.98 265.266 53.226 362.020 149.98 149.98 225.185 149.98 362.020-53.226 265.266-149.98 362.020zM832.862 127.138c-85.764-85.764-199.758-132.956-320.862-132.956s-235.098 47.192-320.862 132.956c-176.916 176.916-176.916 464.808 0 641.724 85.764 85.764 199.758 132.956 320.862 132.956s235.098-47.192 320.862-132.956c176.916-176.916 176.916-464.808 0-641.724zM737.616 673.616c-11.421 11.421-29.737 11.421-41.158 0l-184.458-184.458-184.458 184.458c-11.421 11.421-29.737 11.421-41.158 0s-11.421-29.737 0-41.158l184.458-184.458-184.458-184.458c-11.421-11.421-11.421-29.737 0-41.158 5.603-5.603 13.145-8.62 20.471-8.62s14.869 2.801 20.471 8.62l184.458 184.458 184.458-184.458c5.603-5.603 13.145-8.62 20.471-8.62 7.542 0 14.869 2.801 20.471 8.62 11.421 11.421 11.421 29.737 0 41.158l-184.027 184.458 184.458 184.458c11.421 11.421 11.421 29.737 0 41.158z" />
<glyph unicode="&#xe92d;" glyph-name="close-button" d="M1024 857.6l-102.4 102.4-409.6-409.6-409.6 409.6-102.4-102.4 409.6-409.6-409.6-409.6 102.4-102.4 409.6 409.6 409.6-409.6 102.4 102.4-409.6 409.6z" />
<glyph unicode="&#xe92e;" glyph-name="course" d="M991.697 906.7h-447.395v20.997c0 17.839-14.464 32.303-32.303 32.303s-32.303-14.464-32.303-32.303v-20.997h-447.395c-17.839 0-32.299-14.464-32.299-32.303v-106.599c0-17.839 14.46-32.303 32.299-32.303h20.997v-553.994c0-17.839 14.464-32.303 32.303-32.303h361.793l-121.135-161.516c-10.702-14.27-7.813-34.519 6.461-45.221 5.81-4.361 12.609-6.461 19.356-6.461 9.819 0 19.518 4.461 25.865 12.922l101.755 135.671v-116.291c0-17.839 14.464-32.303 32.303-32.303s32.303 14.464 32.303 32.303v116.291l101.755-135.671c6.347-8.461 16.043-12.922 25.865-12.922 6.747 0 13.546 2.103 19.356 6.461 14.274 10.702 17.167 30.954 6.461 45.221l-121.135 161.516h361.793c17.839 0 32.299 14.464 32.299 32.303v553.994h21.001c17.839 0 32.299 14.464 32.299 32.303v106.599c0 17.839-14.46 32.303-32.299 32.303zM64.605 800.101v41.994h894.786v-41.994h-894.786zM906.095 213.804h-788.19v521.692h788.187v-521.692zM245.501 468.994h479.697c17.839 0 32.303 14.464 32.303 32.303s-14.464 32.303-32.303 32.303h-479.697c-17.839 0-32.303-14.464-32.303-32.303s14.464-32.303 32.303-32.303zM245.501 575.593h106.599c17.839 0 32.303 14.46 32.303 32.303 0 17.839-14.464 32.303-32.303 32.303h-106.599c-17.839 0-32.303-14.464-32.303-32.303 0-17.842 14.464-32.303 32.303-32.303zM245.501 362.398h319.798c17.839 0 32.303 14.464 32.303 32.303s-14.464 32.303-32.303 32.303h-319.798c-17.839 0-32.303-14.464-32.303-32.303s14.464-32.303 32.303-32.303z" />
<glyph unicode="&#xe92f;" glyph-name="dollar" d="M512 960c-11.776 0-21.334-9.558-21.334-21.334v-981.334c0-11.776 9.558-21.334 21.334-21.334s21.334 9.558 21.334 21.334v981.334c0 11.776-9.558 21.334-21.334 21.334zM512 874.666c-152.918 0-277.334-95.702-277.334-213.334 0-81.194 58.368-154.24 152.362-190.634 2.56-0.982 5.12-1.45 7.722-1.45 8.534 0 16.64 5.162 19.882 13.654 4.31 10.966-1.152 23.296-12.16 27.562-77.184 29.91-125.142 87.722-125.142 150.87 0.004 94.122 105.304 170.666 234.67 170.666s234.666-76.544 234.666-170.666c0-11.776 9.558-21.334 21.334-21.334s21.334 9.558 21.334 21.334c0 117.632-124.416 213.332-277.334 213.332zM636.928 425.258c-10.966 4.31-23.296-1.152-27.562-12.16-4.31-10.966 1.152-23.296 12.16-27.562 77.184-29.91 125.142-87.722 125.142-150.87-0.002-94.122-105.302-170.666-234.668-170.666s-234.666 76.544-234.666 170.666c0 11.776-9.558 21.334-21.334 21.334s-21.334-9.558-21.334-21.334c0-117.632 124.416-213.334 277.334-213.334s277.334 95.702 277.334 213.334c0 81.196-58.368 154.24-152.406 190.592zM637.184 425.13c-62.422 25.174-92.032 34.944-123.306 45.27-27.776 9.174-56.49 18.688-111.402 40.022-10.922 4.394-23.296-1.152-27.606-12.118s1.152-23.338 12.118-27.606c55.978-21.76 85.248-31.402 113.536-40.746 30.634-10.112 59.562-19.67 120.746-44.33 2.602-1.024 5.29-1.536 7.978-1.536 8.448 0 16.426 5.034 19.754 13.312 4.438 10.88-0.852 23.296-11.818 27.732z" />
<glyph unicode="&#xe930;" glyph-name="dollar-bold" d="M707.8 328.8c0-41.6-15.6-76-46.8-103s-74.8-44.2-130.8-51.2v-106.4h-59.2v102.4c-34.2 0-67.4 2.6-99.6 8s-58.4 12.8-79 22.2v71.6c25.4-11.4 54.6-20.6 87.8-27.8s63.4-10.8 90.6-10.8v202c-62.6 19.8-106.6 43-131.8 69.2s-37.8 60.2-37.8 101.8c0 40 15.6 73 46.6 98.6s72 41.2 123.2 46.8v83.6h59.2v-82.6c56.2-1.6 110.6-12.8 162.8-34l-23.8-60c-45.6 18-92 28.8-139 32.2v-199c48-15.2 84-30.2 107.8-44.8s41.4-31.2 52.8-50c11.4-19 17-41.8 17-68.8zM378.8 607.8c0-23.2 6.8-42 20.6-56s37.6-27.4 71.6-40v177.6c-30.2-4.8-53.2-14.4-68.8-28.6s-23.4-32-23.4-53zM629.8 323c0 22-6.8 39.8-20.4 53.4s-40 27.2-79.2 40.6v-178.4c66.4 9 99.6 37.2 99.6 84.4z" />
<glyph unicode="&#xe931;" glyph-name="event" d="M870.4 857.599h-51.199v102.401h-102.401v-102.401h-409.6v102.401h-102.401v-102.401h-51.199c-56.575 0-101.887-45.823-101.887-102.401l-0.514-716.798c0-56.575 45.823-102.401 102.401-102.401h716.8c56.575 0 102.401 45.823 102.401 102.401v716.8c-0.002 56.575-45.826 102.398-102.401 102.398zM870.4 38.401h-716.8v563.2h716.8v-563.2zM743.935 444.929l-54.271 54.271-249.857-249.857-108.542 108.545-54.274-54.271 162.816-162.816z" />
<glyph unicode="&#xe932;" glyph-name="information" d="M512 960c-282.317 0-512-229.686-512-512.003s229.683-511.997 512-511.997 512 229.68 512 511.997c0 282.317-229.683 512.003-512 512.003zM512 29.091c-230.99 0-418.909 187.92-418.909 418.906s187.92 418.912 418.909 418.912 418.909-187.926 418.909-418.912c0-230.986-187.923-418.906-418.909-418.906zM511.994 742.788c-34.214 0-62.048-27.853-62.048-62.089 0-34.205 27.834-62.033 62.048-62.033s62.048 27.828 62.048 62.033c0 34.236-27.834 62.089-62.048 62.089zM512 525.576c-25.706 0-46.545-20.84-46.545-46.545v-279.273c0-25.706 20.84-46.545 46.545-46.545s46.545 20.84 46.545 46.545v279.273c0 25.706-20.84 46.545-46.545 46.545z" />
<glyph unicode="&#xe933;" glyph-name="podcast" d="M512 960c-282.323 0-512-229.677-512-512s229.677-512 512-512 512 229.677 512 512-229.677 512-512 512zM554.667 23.49v147.177h42.667c117.635 0 213.333 95.698 213.333 213.333v85.333c0 23.552-19.115 42.667-42.667 42.667s-42.667-19.115-42.667-42.667v-85.333c0-70.594-57.406-128-128-128h-170.667c-70.594 0-128 57.406-128 128v85.333c0 23.552-19.115 42.667-42.667 42.667s-42.667-19.115-42.667-42.667v-85.333c0-117.635 95.698-213.333 213.333-213.333h42.667v-147.177c-215.292 21.479-384 203.646-384 424.51 0 235.26 191.406 426.667 426.667 426.667s426.667-191.406 426.667-426.667c0-220.865-168.708-403.031-384-424.51zM576 746.667h-128c-47.063 0-85.333-38.271-85.333-85.333v-256c0-47.063 38.271-85.333 85.333-85.333h128c47.063 0 85.333 38.271 85.333 85.333v256c0 47.063-38.271 85.333-85.333 85.333zM576 405.333h-128l-0.042 256h128.042z" />
<glyph unicode="&#xe934;" glyph-name="star" d="M1023.102 564.492c-2.163 6.635-7.9 11.474-14.81 12.482l-331.576 48.188-148.284 300.453c-3.079 6.269-9.458 10.228-16.423 10.228s-13.362-3.959-16.423-10.228l-148.302-300.471-331.576-48.188c-6.91-1.008-12.629-5.829-14.81-12.482-2.145-6.617-0.367-13.912 4.637-18.769l239.948-233.881-56.656-330.256c-1.173-6.873 1.65-13.82 7.277-17.926 5.664-4.142 13.16-4.674 19.301-1.393l296.604 155.909 296.567-155.909c2.676-1.411 5.627-2.108 8.541-2.108 3.794 0 7.57 1.173 10.778 3.501 5.645 4.106 8.468 11.053 7.277 17.926l-56.637 330.238 239.948 233.9c4.986 4.894 6.782 12.171 4.619 18.787z" />
<glyph unicode="&#xe935;" glyph-name="youtube" d="M669.617 494.016l-226.227 123.781c-13.008 7.117-28.383 6.852-41.133-0.703-12.758-7.563-20.367-20.922-20.367-35.75v-245.438c0-14.758 7.563-28.094 20.234-35.664 6.617-3.953 13.953-5.938 21.305-5.938 6.734 0 13.484 1.664 19.695 5.008l226.234 121.648c13.43 7.227 21.813 21.188 21.875 36.445 0.055 15.258-8.227 29.281-21.617 36.609zM441.898 366.781v183.438l169.078-92.516zM1016.469 652.945l-0.047 0.469c-0.867 8.242-9.5 81.555-45.141 118.844-41.195 43.859-87.898 49.188-110.359 51.742-1.859 0.211-3.563 0.406-5.086 0.609l-1.789 0.188c-135.375 9.844-339.82 11.187-341.867 11.195l-0.18 0.008-0.18-0.008c-2.047-0.008-206.492-1.352-343.086-11.195l-1.805-0.188c-1.453-0.195-3.055-0.375-4.797-0.578-22.203-2.563-68.406-7.898-109.719-53.344-33.945-36.891-43.758-108.633-44.766-116.695l-0.117-1.047c-0.305-3.43-7.531-85.078-7.531-167.047v-76.625c0-81.969 7.227-163.617 7.531-167.055l0.055-0.516c0.867-8.109 9.492-80.078 44.969-117.383 38.734-42.391 87.711-48 114.055-51.016 4.164-0.477 7.75-0.883 10.195-1.313l2.367-0.328c78.164-7.438 323.234-11.102 333.625-11.25l0.313-0.008 0.313 0.008c2.047 0.008 206.484 1.352 341.859 11.195l1.789 0.188c1.711 0.227 3.633 0.43 5.742 0.648 22.078 2.344 68.031 7.211 108.773 52.039 33.945 36.898 43.766 108.641 44.766 116.695l0.117 1.047c0.305 3.438 7.539 85.078 7.539 167.047v76.625c-0.008 81.969-7.234 163.609-7.539 167.047zM963.992 409.273c0-75.867-6.625-154-7.25-161.172-2.547-19.758-12.898-65.148-29.438-83.125-25.5-28.055-51.695-30.836-70.82-32.859-2.313-0.242-4.453-0.477-6.391-0.719-130.938-9.469-327.664-10.922-336.727-10.977-10.164 0.148-251.648 3.844-327.43 10.883-3.883 0.633-8.078 1.117-12.5 1.617-22.43 2.57-53.133 6.086-76.742 32.055l-0.555 0.594c-16.25 16.93-26.305 59.375-28.859 82.297-0.477 5.422-7.273 84.477-7.273 161.406v76.625c0 75.781 6.609 153.828 7.25 161.148 3.039 23.273 13.586 65.914 29.438 83.148 26.281 28.906 53.992 32.109 72.32 34.227 1.75 0.203 3.383 0.391 4.891 0.586 132.844 9.516 330.984 10.93 338.094 10.984 7.109-0.047 205.18-1.469 336.844-10.984 1.617-0.203 3.383-0.406 5.281-0.625 18.852-2.148 47.344-5.398 73.492-33.289l0.242-0.258c16.25-16.93 26.305-60.117 28.859-83.5 0.453-5.117 7.273-84.344 7.273-161.438z" />
</font>
</defs>
</svg>
